<svg width="3529" height="1009" viewBox="0 0 3529 1009" fill="none" xmlns="http://www.w3.org/2000/svg">
<path d="M1550.82 535.405C1404.34 388.023 1331.1 314.332 1355.73 247.348C1380.36 180.364 1483.89 171.671 1690.95 154.286L3528.5 0V823.5L2044.35 922.693C1994.23 926.043 1969.16 927.718 1946.41 919.132C1923.66 910.546 1905.95 892.729 1870.54 857.096L1550.82 535.405Z" fill="#8C77DE"/>
<circle r="260.984" transform="matrix(-1 0 0 1 2357 510)" stroke="#9380DF" stroke-width="57"/>
<circle r="317" transform="matrix(-1 0 0 1 2357 510)" stroke="#9380DF" stroke-width="4" stroke-linejoin="round" stroke-dasharray="10 10 10 10 10 10"/>
<g filter="url(#filter0_d)">
<path d="M15 276.5H1877.81C1946.79 276.5 1999.07 338.757 1987.13 406.7L1933.01 714.899C1924.42 763.775 1884.44 801.016 1835.08 806.112L15 994V276.5Z" fill="white"/>
</g>
<defs>
<filter id="filter0_d" x="0" y="261.5" width="2003.84" height="747.5" filterUnits="userSpaceOnUse" color-interpolation-filters="sRGB">
<feFlood flood-opacity="0" result="BackgroundImageFix"/>
<feColorMatrix in="SourceAlpha" type="matrix" values="0 0 0 0 0 0 0 0 0 0 0 0 0 0 0 0 0 0 127 0"/>
<feOffset/>
<feGaussianBlur stdDeviation="7.5"/>
<feColorMatrix type="matrix" values="0 0 0 0 0.360784 0 0 0 0 0.360784 0 0 0 0 0.360784 0 0 0 0.15 0"/>
<feBlend mode="normal" in2="BackgroundImageFix" result="effect1_dropShadow"/>
<feBlend mode="normal" in="SourceGraphic" in2="effect1_dropShadow" result="shape"/>
</filter>
</defs>
</svg>
