<svg width="849" height="543" viewBox="0 0 849 543" fill="none" xmlns="http://www.w3.org/2000/svg">
<path d="M199.874 424.097C53.3762 276.656 -19.8725 202.935 4.77772 135.949C29.4279 68.9623 132.99 60.306 340.116 42.9934L848.5 0.5V497L428.675 537.743C376.721 542.785 350.744 545.306 327.034 536.76C303.324 528.215 284.929 509.701 248.138 472.673L199.874 424.097Z" fill="#8C77DE"/>
<path fill-rule="evenodd" clip-rule="evenodd" d="M324.28 428.639L323.014 428.659C323.005 428.107 323 427.554 323 427C323 426.446 323.005 425.893 323.014 425.341L324.28 425.361C324.271 425.906 324.267 426.453 324.267 427C324.267 427.547 324.271 428.094 324.28 428.639ZM324.385 422.103L323.12 422.042C323.174 420.936 323.245 419.835 323.334 418.738L324.596 418.841C324.508 419.923 324.438 421.011 324.385 422.103ZM324.912 415.594L323.654 415.45C323.779 414.353 323.921 413.261 324.081 412.175L325.334 412.359C325.176 413.432 325.035 414.51 324.912 415.594ZM325.862 409.135L324.616 408.91C324.812 407.824 325.026 406.743 325.257 405.669L326.495 405.936C326.267 406.996 326.056 408.063 325.862 409.135ZM327.234 402.757L326.005 402.45C326.273 401.378 326.557 400.313 326.859 399.255L328.077 399.602C327.779 400.647 327.498 401.699 327.234 402.757ZM329.023 396.481L327.817 396.093C328.154 395.043 328.509 393.999 328.879 392.964L330.072 393.39C329.706 394.413 329.356 395.443 329.023 396.481ZM331.31 386.817C330.872 387.826 330.45 388.843 330.044 389.869L331.222 390.335C331.623 389.322 332.039 388.317 332.472 387.321L331.31 386.817ZM333.82 384.349L332.676 383.807C333.148 382.81 333.637 381.822 334.141 380.843L335.267 381.422C334.769 382.389 334.287 383.365 333.82 384.349ZM336.807 378.546L335.701 377.93C336.237 376.966 336.789 376.013 337.356 375.069L338.442 375.721C337.882 376.653 337.337 377.595 336.807 378.546ZM340.168 372.95L339.105 372.263C339.703 371.337 340.316 370.421 340.943 369.517L341.984 370.238C341.364 371.132 340.759 372.036 340.168 372.95ZM343.887 367.587L342.871 366.832C343.528 365.947 344.2 365.073 344.885 364.21L345.876 364.998C345.2 365.85 344.536 366.713 343.887 367.587ZM347.949 362.476L346.983 361.657C347.697 360.817 348.423 359.989 349.163 359.173L350.102 360.023C349.371 360.829 348.653 361.647 347.949 362.476ZM352.334 357.641L351.424 356.76C352.19 355.969 352.969 355.189 353.761 354.423L354.642 355.333C353.86 356.09 353.09 356.859 352.334 357.641ZM357.024 353.101L356.173 352.163C356.989 351.423 357.817 350.696 358.657 349.983L359.477 350.948C358.647 351.652 357.83 352.37 357.024 353.101ZM361.999 348.876L361.211 347.884C362.073 347.199 362.947 346.528 363.832 345.87L364.587 346.887C363.714 347.536 362.851 348.199 361.999 348.876ZM367.239 344.984L366.517 343.943C367.422 343.315 368.338 342.702 369.264 342.104L369.951 343.168C369.036 343.759 368.132 344.364 367.239 344.984ZM372.722 341.441L372.069 340.356C373.013 339.789 373.967 339.237 374.93 338.7L375.546 339.807C374.595 340.337 373.653 340.882 372.722 341.441ZM378.423 338.266L377.843 337.14C378.822 336.636 379.81 336.148 380.808 335.675L381.35 336.82C380.365 337.286 379.389 337.769 378.423 338.266ZM384.322 335.471L383.817 334.31C384.826 333.872 385.844 333.45 386.87 333.044L387.335 334.222C386.323 334.622 385.318 335.039 384.322 335.471ZM390.391 333.071L389.964 331.879C391 331.508 392.043 331.154 393.094 330.816L393.481 332.022C392.443 332.355 391.413 332.705 390.391 333.071ZM396.603 331.076L396.256 329.858C397.314 329.557 398.379 329.272 399.451 329.004L399.758 330.233C398.699 330.497 397.648 330.779 396.603 331.076ZM402.936 329.495L402.67 328.257C403.744 328.026 404.824 327.812 405.91 327.616L406.136 328.862C405.063 329.056 403.996 329.267 402.936 329.495ZM409.359 328.333L409.175 327.08C410.262 326.921 411.354 326.778 412.451 326.653L412.594 327.911C411.511 328.035 410.432 328.176 409.359 328.333ZM415.841 327.595L415.739 326.333C416.835 326.244 417.937 326.173 419.043 326.12L419.104 327.385C418.011 327.437 416.924 327.508 415.841 327.595ZM422.362 327.28L422.341 326.013C422.893 326.004 423.446 326 424 326C424.555 326 425.108 326.004 425.66 326.013L425.639 327.28C425.094 327.271 424.548 327.266 424 327.266C423.453 327.266 422.907 327.271 422.362 327.28ZM428.897 327.385L428.958 326.12C430.064 326.173 431.166 326.244 432.262 326.333L432.16 327.595C431.077 327.508 429.99 327.437 428.897 327.385ZM435.407 327.911L435.55 326.653C436.647 326.778 437.739 326.921 438.826 327.08L438.642 328.333C437.569 328.176 436.49 328.035 435.407 327.911ZM441.865 328.862L442.091 327.616C443.177 327.812 444.257 328.026 445.331 328.257L445.065 329.495C444.005 329.267 442.938 329.056 441.865 328.862ZM448.243 330.233L448.55 329.004C449.622 329.272 450.687 329.557 451.745 329.858L451.398 331.076C450.353 330.779 449.302 330.497 448.243 330.233ZM454.52 332.022L454.907 330.816C455.958 331.154 457.001 331.508 458.037 331.879L457.61 333.071C456.588 332.705 455.558 332.355 454.52 332.022ZM460.666 334.222L461.131 333.044C462.157 333.45 463.175 333.872 464.184 334.31L463.679 335.471C462.683 335.039 461.678 334.622 460.666 334.222ZM466.651 336.82L467.193 335.675C468.191 336.148 469.179 336.636 470.158 337.14L469.578 338.266C468.611 337.769 467.636 337.287 466.651 336.82ZM472.455 339.807L473.071 338.7C474.034 339.237 474.988 339.789 475.932 340.356L475.279 341.441C474.348 340.882 473.406 340.337 472.455 339.807ZM478.05 343.168L478.737 342.104C479.663 342.702 480.579 343.315 481.484 343.943L480.762 344.984C479.869 344.364 478.965 343.759 478.05 343.168ZM483.414 346.887L484.169 345.87C485.054 346.528 485.928 347.199 486.79 347.884L486.002 348.876C485.15 348.199 484.287 347.536 483.414 346.887ZM488.524 350.948L489.344 349.983C490.184 350.696 491.012 351.423 491.828 352.163L490.977 353.101C490.171 352.37 489.354 351.652 488.524 350.948ZM493.359 355.333L494.24 354.423C495.032 355.189 495.811 355.969 496.577 356.76L495.667 357.641C494.911 356.859 494.141 356.09 493.359 355.333ZM497.899 360.023L498.838 359.173C499.578 359.989 500.304 360.817 501.018 361.657L500.052 362.476C499.348 361.647 498.63 360.829 497.899 360.023ZM502.125 364.998L503.116 364.21C503.801 365.073 504.473 365.947 505.13 366.832L504.114 367.587C503.465 366.713 502.801 365.85 502.125 364.998ZM506.017 370.238L507.058 369.517C507.685 370.421 508.298 371.337 508.896 372.263L507.833 372.95C507.242 372.036 506.637 371.132 506.017 370.238ZM509.559 375.721L510.645 375.069C511.212 376.013 511.764 376.966 512.3 377.93L511.194 378.546C510.664 377.595 510.119 376.653 509.559 375.721ZM512.734 381.422L513.86 380.843C514.364 381.822 514.853 382.81 515.325 383.807L514.18 384.349C513.714 383.365 513.232 382.389 512.734 381.422ZM515.529 387.321L516.691 386.817C517.129 387.826 517.551 388.843 517.957 389.869L516.779 390.335C516.378 389.322 515.962 388.317 515.529 387.321ZM517.929 393.39L519.122 392.964C519.492 393.999 519.847 395.043 520.184 396.093L518.978 396.481C518.645 395.443 518.295 394.413 517.929 393.39ZM519.924 399.602L521.142 399.255C521.444 400.313 521.728 401.378 521.996 402.45L520.767 402.757C520.503 401.699 520.222 400.647 519.924 399.602ZM521.506 405.936L522.744 405.669C522.975 406.743 523.189 407.824 523.385 408.91L522.139 409.135C521.945 408.063 521.734 406.996 521.506 405.936ZM522.667 412.359L523.92 412.175C524.08 413.261 524.222 414.353 524.347 415.45L523.089 415.594C522.966 414.51 522.825 413.432 522.667 412.359ZM523.405 418.841L524.667 418.738C524.756 419.835 524.827 420.936 524.881 422.042L523.616 422.103C523.563 421.011 523.493 419.923 523.405 418.841ZM525 427C525 426.446 524.996 425.893 524.987 425.341L523.721 425.361C523.73 425.906 523.734 426.453 523.734 427C523.734 427.547 523.73 428.094 523.721 428.639L524.987 428.659C524.996 428.107 525 427.554 525 427ZM523.616 431.897L524.881 431.958C524.827 433.064 524.756 434.165 524.667 435.262L523.405 435.159C523.493 434.077 523.563 432.989 523.616 431.897ZM523.089 438.406L524.347 438.55C524.222 439.647 524.08 440.739 523.92 441.825L522.667 441.641C522.825 440.568 522.966 439.49 523.089 438.406ZM522.139 444.865L523.385 445.09C523.189 446.176 522.975 447.257 522.744 448.331L521.506 448.064C521.734 447.004 521.945 445.937 522.139 444.865ZM520.767 451.243L521.996 451.55C521.728 452.622 521.444 453.687 521.142 454.745L519.924 454.398C520.222 453.353 520.503 452.301 520.767 451.243ZM518.978 457.519L520.184 457.907C519.847 458.957 519.492 460.001 519.122 461.036L517.929 460.61C518.295 459.587 518.645 458.557 518.978 457.519ZM516.779 463.665L517.957 464.131C517.551 465.157 517.129 466.174 516.691 467.183L515.529 466.679C515.962 465.683 516.378 464.678 516.779 463.665ZM514.18 469.651L515.325 470.193C514.853 471.19 514.364 472.178 513.86 473.157L512.734 472.578C513.232 471.611 513.714 470.635 514.18 469.651ZM511.194 475.454L512.3 476.07C511.764 477.034 511.212 477.987 510.645 478.931L509.559 478.279C510.119 477.347 510.664 476.405 511.194 475.454ZM507.833 481.05L508.896 481.737C508.298 482.663 507.685 483.579 507.058 484.483L506.017 483.762C506.637 482.868 507.242 481.964 507.833 481.05ZM504.114 486.413L505.13 487.168C504.473 488.053 503.801 488.927 503.116 489.79L502.125 489.002C502.801 488.15 503.465 487.287 504.114 486.413ZM500.052 491.524L501.018 492.343C500.304 493.183 499.578 494.011 498.838 494.827L497.899 493.977C498.63 493.171 499.348 492.353 500.052 491.524ZM495.667 496.359L496.577 497.24C495.811 498.031 495.032 498.811 494.24 499.577L493.359 498.667C494.141 497.91 494.911 497.141 495.667 496.359ZM490.977 500.899L491.828 501.837C491.012 502.577 490.184 503.304 489.344 504.017L488.524 503.052C489.354 502.348 490.171 501.63 490.977 500.899ZM486.002 505.124L486.79 506.116C485.928 506.801 485.054 507.472 484.169 508.13L483.413 507.113C484.287 506.464 485.15 505.801 486.002 505.124ZM480.762 509.016L481.484 510.057C480.579 510.685 479.663 511.298 478.737 511.896L478.05 510.832C478.965 510.241 479.869 509.636 480.762 509.016ZM475.279 512.559L475.932 513.644C474.988 514.211 474.034 514.763 473.071 515.3L472.455 514.193C473.406 513.663 474.348 513.118 475.279 512.559ZM469.578 515.734L470.158 516.86C469.179 517.364 468.191 517.852 467.193 518.325L466.651 517.18C467.636 516.714 468.611 516.231 469.578 515.734ZM463.679 518.529L464.184 519.69C463.175 520.128 462.157 520.55 461.131 520.956L460.666 519.778C461.678 519.378 462.683 518.961 463.679 518.529ZM457.61 520.929L458.037 522.121C457.001 522.492 455.958 522.846 454.907 523.184L454.52 521.978C455.558 521.645 456.588 521.295 457.61 520.929ZM451.398 522.924L451.745 524.142C450.687 524.443 449.622 524.728 448.55 524.996L448.243 523.767C449.302 523.503 450.353 523.221 451.398 522.924ZM442.091 526.384C443.177 526.188 444.257 525.974 445.331 525.743L445.065 524.505C444.005 524.733 442.938 524.944 441.865 525.138L442.091 526.384ZM438.642 525.667L438.826 526.92C437.739 527.079 436.647 527.222 435.55 527.347L435.407 526.089C436.49 525.965 437.569 525.824 438.642 525.667ZM432.16 526.405L432.262 527.667C431.166 527.756 430.064 527.827 428.958 527.88L428.897 526.615C429.989 526.563 431.077 526.492 432.16 526.405ZM425.639 526.72L425.66 527.987C425.108 527.996 424.555 528 424 528C423.446 528 422.893 527.996 422.341 527.987L422.362 526.72C422.907 526.729 423.453 526.734 424 526.734C424.548 526.734 425.094 526.729 425.639 526.72ZM419.104 526.615L419.043 527.88C417.937 527.827 416.835 527.756 415.739 527.667L415.841 526.405C416.924 526.492 418.011 526.563 419.104 526.615ZM412.594 526.089L412.451 527.347C411.354 527.222 410.262 527.079 409.175 526.92L409.359 525.667C410.432 525.824 411.511 525.965 412.594 526.089ZM406.136 525.138L405.91 526.384C404.824 526.188 403.744 525.974 402.67 525.743L402.936 524.505C403.996 524.733 405.063 524.944 406.136 525.138ZM399.758 523.767L399.451 524.996C398.379 524.728 397.314 524.443 396.256 524.142L396.603 522.924C397.648 523.221 398.699 523.503 399.758 523.767ZM393.481 521.978L393.094 523.184C392.043 522.846 391 522.492 389.964 522.121L390.391 520.929C391.413 521.295 392.443 521.645 393.481 521.978ZM383.817 519.69C384.826 520.128 385.844 520.55 386.869 520.956L387.335 519.778C386.323 519.378 385.318 518.961 384.322 518.529L383.817 519.69ZM381.35 517.18L380.808 518.324C379.81 517.852 378.822 517.364 377.843 516.86L378.423 515.734C379.389 516.231 380.365 516.714 381.35 517.18ZM375.546 514.193L374.93 515.3C373.967 514.763 373.013 514.211 372.069 513.644L372.722 512.559C373.653 513.118 374.595 513.663 375.546 514.193ZM369.951 510.832L369.264 511.896C368.338 511.298 367.422 510.685 366.517 510.057L367.239 509.016C368.132 509.636 369.036 510.241 369.951 510.832ZM364.587 507.113L363.832 508.13C362.947 507.472 362.073 506.801 361.211 506.116L361.999 505.124C362.851 505.801 363.714 506.464 364.587 507.113ZM359.477 503.052L358.657 504.017C357.817 503.304 356.989 502.577 356.173 501.837L357.024 500.899C357.83 501.63 358.647 502.348 359.477 503.052ZM354.642 498.667L353.761 499.577C352.969 498.811 352.19 498.031 351.424 497.24L352.334 496.359C353.09 497.141 353.86 497.91 354.642 498.667ZM350.102 493.977L349.163 494.827C348.423 494.011 347.697 493.183 346.983 492.343L347.949 491.524C348.653 492.353 349.371 493.171 350.102 493.977ZM345.876 489.002L344.885 489.79C344.2 488.927 343.528 488.053 342.871 487.168L343.887 486.413C344.536 487.287 345.2 488.15 345.876 489.002ZM341.984 483.762L340.943 484.483C340.316 483.579 339.703 482.663 339.105 481.737L340.168 481.05C340.759 481.964 341.364 482.868 341.984 483.762ZM338.442 478.279L337.356 478.931C336.789 477.987 336.237 477.034 335.701 476.07L336.807 475.454C337.337 476.405 337.882 477.347 338.442 478.279ZM335.267 472.578L334.141 473.157C333.637 472.178 333.148 471.19 332.676 470.193L333.82 469.651C334.287 470.635 334.769 471.611 335.267 472.578ZM332.472 466.679L331.31 467.183C330.872 466.174 330.45 465.157 330.044 464.131L331.222 463.665C331.623 464.678 332.039 465.683 332.472 466.679ZM330.072 460.61L328.879 461.036C328.509 460.001 328.154 458.957 327.817 457.907L329.023 457.519C329.356 458.557 329.706 459.587 330.072 460.61ZM328.077 454.398L326.859 454.745C326.557 453.687 326.273 452.622 326.005 451.55L327.234 451.243C327.498 452.301 327.779 453.353 328.077 454.398ZM326.495 448.064L325.257 448.331C325.026 447.257 324.812 446.176 324.616 445.09L325.862 444.865C326.056 445.937 326.267 447.004 326.495 448.064ZM325.334 441.641L324.081 441.825C323.921 440.739 323.779 439.647 323.654 438.55L324.912 438.406C325.035 439.49 325.176 440.568 325.334 441.641ZM324.596 435.159L323.334 435.262C323.245 434.165 323.174 433.064 323.12 431.958L324.385 431.897C324.438 432.989 324.508 434.077 324.596 435.159ZM350.115 427C350.115 467.806 383.195 500.885 424 500.885C464.806 500.885 497.885 467.806 497.885 427C497.885 386.194 464.806 353.115 424 353.115C383.195 353.115 350.115 386.194 350.115 427ZM332 427C332 477.81 373.19 519 424 519C474.811 519 516 477.81 516 427C516 376.19 474.811 335 424 335C373.19 335 332 376.19 332 427Z" fill="#9380DF"/>
</svg>
