<svg width="1366" height="534" viewBox="0 0 1366 534" fill="none" xmlns="http://www.w3.org/2000/svg">
<path d="M686.954 431.769C497.919 278.882 403.402 202.439 426.721 129.452C450.04 56.4655 571.371 48.9859 814.033 34.0267L1366 0V520.457L895.679 531.983C854.952 532.981 834.589 533.48 815.716 527.062C796.843 520.644 781.005 507.835 749.33 482.217L686.954 431.769Z" fill="#8C77DE"/>
<path fill-rule="evenodd" clip-rule="evenodd" d="M955 438.651C861.857 438.651 786.349 363.143 786.349 270C786.349 176.857 861.857 101.349 955 101.349C1048.14 101.349 1123.65 176.857 1123.65 270C1123.65 363.143 1048.14 438.651 955 438.651ZM955 480C839.02 480 745 385.98 745 270C745 154.02 839.02 60 955 60C1070.98 60 1165 154.02 1165 270C1165 385.98 1070.98 480 955 480Z" fill="#9380DF"/>
<path fill-rule="evenodd" clip-rule="evenodd" d="M724.031 273.795L726.927 273.748C726.907 272.501 726.897 271.252 726.897 270C726.897 268.748 726.907 267.499 726.927 266.252L724.031 266.205C724.01 267.468 724 268.733 724 270C724 271.267 724.01 272.532 724.031 273.795ZM724.273 258.661L727.167 258.8C727.287 256.302 727.448 253.815 727.649 251.339L724.762 251.105C724.559 253.612 724.396 256.131 724.273 258.661ZM725.494 243.585L728.372 243.912C728.654 241.434 728.976 238.968 729.337 236.514L726.471 236.093C726.105 238.577 725.78 241.075 725.494 243.585ZM727.695 228.626L730.545 229.141C730.989 226.688 731.472 224.248 731.993 221.823L729.161 221.214C728.633 223.67 728.144 226.141 727.695 228.626ZM730.871 213.852L733.682 214.553C734.286 212.133 734.929 209.727 735.61 207.338L732.825 206.544C732.135 208.964 731.484 211.4 730.871 213.852ZM735.016 199.313L737.774 200.198C738.536 197.825 739.335 195.469 740.172 193.13L737.445 192.154C736.598 194.523 735.788 196.909 735.016 199.313ZM740.11 185.077C741.038 182.731 742.003 180.403 743.005 178.096L745.662 179.249C744.673 181.528 743.72 183.826 742.804 186.142L740.11 185.077ZM746.129 171.212L748.747 172.453C749.814 170.201 750.916 167.969 752.054 165.758L749.479 164.433C748.327 166.671 747.21 168.932 746.129 171.212ZM753.048 157.77L755.578 159.179C756.79 157.004 758.036 154.85 759.316 152.719L756.833 151.227C755.537 153.385 754.275 155.566 753.048 157.77ZM760.832 144.809L763.265 146.381C764.616 144.29 766.001 142.222 767.418 140.179L765.037 138.528C763.602 140.598 762.201 142.692 760.832 144.809ZM769.445 132.388L771.771 134.115C773.255 132.116 774.772 130.142 776.32 128.194L774.053 126.392C772.485 128.365 770.949 130.363 769.445 132.388ZM778.852 120.551L781.059 122.426C782.671 120.529 784.312 118.659 785.984 116.816L783.838 114.87C782.146 116.736 780.483 118.63 778.852 120.551ZM789.007 109.353L791.089 111.367C792.819 109.579 794.579 107.819 796.367 106.089L794.353 104.007C792.542 105.76 790.76 107.542 789.007 109.353ZM799.87 98.838L801.816 100.984C803.659 99.3122 805.529 97.6706 807.426 96.0593L805.551 93.8516C803.63 95.4831 801.736 97.1455 799.87 98.838ZM811.392 89.0525L813.194 91.3202C815.142 89.7722 817.116 88.2555 819.115 86.7706L817.388 84.4454C815.363 85.9491 813.365 87.485 811.392 89.0525ZM823.528 80.0374L825.179 82.4177C827.222 81.0007 829.29 79.6162 831.381 78.2651L829.81 75.8321C827.692 77.2004 825.598 78.6025 823.528 80.0374ZM836.227 71.8331L837.719 74.3162C839.85 73.0361 842.004 71.7898 844.179 70.5781L842.77 68.0476C840.567 69.2747 838.385 70.5367 836.227 71.8331ZM849.433 64.4788L850.758 67.0543C852.969 65.9164 855.201 64.8137 857.453 63.7467L856.212 61.1291C853.932 62.2097 851.671 63.3265 849.433 64.4788ZM863.096 58.0052L864.249 60.6622C866.528 59.6731 868.826 58.7201 871.142 57.8039L870.077 55.1104C867.731 56.0383 865.404 57.0035 863.096 58.0052ZM877.154 52.4451L878.13 55.1723C880.469 54.3354 882.825 53.5357 885.198 52.7737L884.313 50.0158C881.909 50.7875 879.523 51.5975 877.154 52.4451ZM891.544 47.8248L892.338 50.6104C894.727 49.9293 897.133 49.2862 899.553 48.6817L898.852 45.8714C896.4 46.4836 893.964 47.135 891.544 47.8248ZM906.214 44.1612L906.823 46.9931C909.248 46.4717 911.688 45.9888 914.141 45.5452L913.626 42.6949C911.141 43.1441 908.67 43.6332 906.214 44.1612ZM921.093 41.471L921.514 44.3367C923.968 43.9758 926.434 43.6539 928.912 43.3718L928.585 40.4938C926.075 40.7795 923.577 41.1055 921.093 41.471ZM936.105 39.7617L936.339 42.6488C938.815 42.4483 941.302 42.2874 943.801 42.1666L943.661 39.2734C941.131 39.3957 938.612 39.5587 936.105 39.7617ZM951.205 39.0305L951.252 41.9267C952.499 41.9066 953.748 41.8966 955 41.8966C956.252 41.8966 957.501 41.9066 958.748 41.9267L958.795 39.0305C957.532 39.0102 956.267 39 955 39C953.733 39 952.468 39.0102 951.205 39.0305ZM966.339 39.2734L966.2 42.1666C968.698 42.2874 971.185 42.4483 973.661 42.6488L973.895 39.7617C971.388 39.5587 968.869 39.3957 966.339 39.2734ZM981.415 40.4938L981.088 43.3718C983.566 43.6539 986.032 43.9758 988.486 44.3367L988.907 41.471C986.423 41.1055 983.925 40.7795 981.415 40.4938ZM996.374 42.6949L995.859 45.5452C998.312 45.9888 1000.75 46.4717 1003.18 46.9931L1003.79 44.1613C1001.33 43.6332 998.859 43.1441 996.374 42.6949ZM1011.15 45.8715L1010.45 48.6817C1012.87 49.2862 1015.27 49.9293 1017.66 50.6104L1018.46 47.8248C1016.04 47.135 1013.6 46.4836 1011.15 45.8715ZM1025.69 50.0158L1024.8 52.7737C1027.18 53.5357 1029.53 54.3354 1031.87 55.1723L1032.85 52.4451C1030.48 51.5975 1028.09 50.7875 1025.69 50.0158ZM1039.92 55.1104L1038.86 57.8039C1041.17 58.7201 1043.47 59.6731 1045.75 60.6622L1046.9 58.0053C1044.6 57.0035 1042.27 56.0383 1039.92 55.1104ZM1053.79 61.1291L1052.55 63.7467C1054.8 64.8137 1057.03 65.9165 1059.24 67.0543L1060.57 64.4789C1058.33 63.3265 1056.07 62.2097 1053.79 61.1291ZM1067.23 68.0476L1065.82 70.5781C1068 71.7898 1070.15 73.0361 1072.28 74.3162L1073.77 71.8331C1071.61 70.5367 1069.43 69.2746 1067.23 68.0476ZM1080.19 75.8321L1078.62 78.2651C1080.71 79.6163 1082.78 81.0007 1084.82 82.4177L1086.47 80.0374C1084.4 78.6025 1082.31 77.2005 1080.19 75.8321ZM1092.61 84.4454L1090.89 86.7706C1092.88 88.2555 1094.86 89.7723 1096.81 91.3202L1098.61 89.0526C1096.64 87.485 1094.64 85.9491 1092.61 84.4454ZM1104.45 93.8516L1102.57 96.0594C1104.47 97.6706 1106.34 99.3123 1108.18 100.984L1110.13 98.8381C1108.26 97.1455 1106.37 95.4831 1104.45 93.8516ZM1115.65 104.007L1113.63 106.089C1115.42 107.819 1117.18 109.579 1118.91 111.367L1120.99 109.353C1119.24 107.542 1117.46 105.76 1115.65 104.007ZM1126.16 114.87L1124.02 116.816C1125.69 118.659 1127.33 120.529 1128.94 122.426L1131.15 120.551C1129.52 118.63 1127.85 116.736 1126.16 114.87ZM1135.95 126.392L1133.68 128.194C1135.23 130.142 1136.74 132.116 1138.23 134.115L1140.55 132.388C1139.05 130.363 1137.51 128.365 1135.95 126.392ZM1144.96 138.528L1142.58 140.179C1144 142.222 1145.38 144.29 1146.73 146.381L1149.17 144.81C1147.8 142.692 1146.4 140.598 1144.96 138.528ZM1153.17 151.227L1150.68 152.719C1151.96 154.85 1153.21 157.004 1154.42 159.179L1156.95 157.77C1155.73 155.567 1154.46 153.385 1153.17 151.227ZM1160.52 164.433L1157.95 165.758C1159.08 167.969 1160.19 170.201 1161.25 172.453L1163.87 171.212C1162.79 168.932 1161.67 166.671 1160.52 164.433ZM1166.99 178.096L1164.34 179.249C1165.33 181.528 1166.28 183.826 1167.2 186.142L1169.89 185.077C1168.96 182.731 1168 180.404 1166.99 178.096ZM1172.55 192.154L1169.83 193.13C1170.66 195.469 1171.46 197.825 1172.23 200.198L1174.98 199.313C1174.21 196.909 1173.4 194.523 1172.55 192.154ZM1177.18 206.544L1174.39 207.338C1175.07 209.727 1175.71 212.133 1176.32 214.553L1179.13 213.852C1178.52 211.4 1177.87 208.964 1177.18 206.544ZM1180.84 221.214L1178.01 221.823C1178.53 224.248 1179.01 226.688 1179.45 229.141L1182.31 228.626C1181.86 226.141 1181.37 223.67 1180.84 221.214ZM1183.53 236.093L1180.66 236.514C1181.02 238.968 1181.35 241.434 1181.63 243.912L1184.51 243.585C1184.22 241.075 1183.89 238.577 1183.53 236.093ZM1185.24 251.105L1182.35 251.339C1182.55 253.815 1182.71 256.302 1182.83 258.8L1185.73 258.661C1185.6 256.131 1185.44 253.612 1185.24 251.105ZM1185.97 266.205C1185.99 267.468 1186 268.733 1186 270C1186 271.267 1185.99 272.532 1185.97 273.795L1183.07 273.748C1183.09 272.501 1183.1 271.252 1183.1 270C1183.1 268.748 1183.09 267.499 1183.07 266.252L1185.97 266.205ZM1185.73 281.339L1182.83 281.199C1182.71 283.698 1182.55 286.185 1182.35 288.661L1185.24 288.895C1185.44 286.388 1185.6 283.869 1185.73 281.339ZM1184.51 296.415L1181.63 296.088C1181.35 298.566 1181.02 301.032 1180.66 303.486L1183.53 303.907C1183.89 301.423 1184.22 298.925 1184.51 296.415ZM1182.31 311.374L1179.45 310.859C1179.01 313.312 1178.53 315.752 1178.01 318.177L1180.84 318.786C1181.37 316.33 1181.86 313.859 1182.31 311.374ZM1179.13 326.148L1176.32 325.447C1175.71 327.867 1175.07 330.273 1174.39 332.662L1177.18 333.456C1177.87 331.036 1178.52 328.6 1179.13 326.148ZM1174.98 340.687L1172.23 339.802C1171.46 342.175 1170.66 344.531 1169.83 346.87L1172.55 347.846C1173.4 345.477 1174.21 343.091 1174.98 340.687ZM1169.89 354.923L1167.2 353.858C1166.28 356.174 1165.33 358.472 1164.34 360.751L1166.99 361.904C1168 359.596 1168.96 357.269 1169.89 354.923ZM1163.87 368.788L1161.25 367.547C1160.19 369.799 1159.08 372.031 1157.95 374.242L1160.52 375.567C1161.67 373.329 1162.79 371.068 1163.87 368.788ZM1156.95 382.23L1154.42 380.821C1153.21 382.996 1151.96 385.15 1150.68 387.281L1153.17 388.773C1154.46 386.615 1155.73 384.433 1156.95 382.23ZM1149.17 395.19L1146.73 393.619C1145.38 395.71 1144 397.778 1142.58 399.821L1144.96 401.472C1146.4 399.402 1147.8 397.308 1149.17 395.19ZM1140.55 407.612L1138.23 405.885C1136.74 407.884 1135.23 409.858 1133.68 411.806L1135.95 413.608C1137.51 411.635 1139.05 409.637 1140.55 407.612ZM1131.15 419.449L1128.94 417.574C1127.33 419.471 1125.69 421.341 1124.02 423.184L1126.16 425.13C1127.85 423.264 1129.52 421.37 1131.15 419.449ZM1120.99 430.647L1118.91 428.633C1117.18 430.421 1115.42 432.181 1113.63 433.911L1115.65 435.993C1117.46 434.24 1119.24 432.458 1120.99 430.647ZM1110.13 441.162L1108.18 439.016C1106.34 440.688 1104.47 442.329 1102.57 443.941L1104.45 446.148C1106.37 444.517 1108.26 442.854 1110.13 441.162ZM1098.61 450.947L1096.81 448.68C1094.86 450.228 1092.88 451.745 1090.89 453.229L1092.61 455.555C1094.64 454.051 1096.64 452.515 1098.61 450.947ZM1086.47 459.963L1084.82 457.582C1082.78 458.999 1080.71 460.384 1078.62 461.735L1080.19 464.168C1082.31 462.8 1084.4 461.398 1086.47 459.963ZM1073.77 468.167L1072.28 465.684C1070.15 466.964 1068 468.21 1065.82 469.422L1067.23 471.952C1069.43 470.725 1071.61 469.463 1073.77 468.167ZM1060.57 475.521L1059.24 472.946C1057.03 474.084 1054.8 475.186 1052.55 476.253L1053.79 478.871C1056.07 477.79 1058.33 476.673 1060.57 475.521ZM1046.9 481.995L1045.75 479.338C1043.47 480.327 1041.17 481.28 1038.86 482.196L1039.92 484.89C1042.27 483.962 1044.6 482.997 1046.9 481.995ZM1032.85 487.555L1031.87 484.828C1029.53 485.665 1027.18 486.464 1024.8 487.226L1025.69 489.984C1028.09 489.212 1030.48 488.402 1032.85 487.555ZM1018.46 492.175L1017.66 489.39C1015.27 490.071 1012.87 490.714 1010.45 491.318L1011.15 494.129C1013.6 493.516 1016.04 492.865 1018.46 492.175ZM1003.79 495.839C1001.33 496.367 998.859 496.856 996.374 497.305L995.859 494.455C998.312 494.011 1000.75 493.528 1003.18 493.007L1003.79 495.839ZM988.907 498.529L988.486 495.663C986.032 496.024 983.566 496.346 981.088 496.628L981.415 499.506C983.925 499.22 986.423 498.895 988.907 498.529ZM973.895 500.238L973.661 497.351C971.185 497.552 968.698 497.713 966.2 497.833L966.339 500.727C968.869 500.604 971.388 500.441 973.895 500.238ZM958.795 500.969L958.748 498.073C957.501 498.093 956.252 498.103 955 498.103C953.748 498.103 952.499 498.093 951.252 498.073L951.205 500.969C952.468 500.99 953.733 501 955 501C956.267 501 957.532 500.99 958.795 500.969ZM943.661 500.727L943.801 497.833C941.302 497.713 938.815 497.552 936.339 497.351L936.105 500.238C938.612 500.441 941.131 500.604 943.661 500.727ZM928.585 499.506L928.912 496.628C926.434 496.346 923.968 496.024 921.514 495.663L921.093 498.529C923.577 498.895 926.075 499.22 928.585 499.506ZM913.626 497.305L914.141 494.455C911.688 494.011 909.248 493.528 906.823 493.007L906.214 495.839C908.67 496.367 911.141 496.856 913.626 497.305ZM898.852 494.129L899.553 491.318C897.133 490.714 894.727 490.071 892.338 489.39L891.544 492.175C893.964 492.865 896.4 493.516 898.852 494.129ZM884.313 489.984L885.198 487.226C882.825 486.464 880.469 485.665 878.13 484.828L877.154 487.555C879.523 488.402 881.909 489.212 884.313 489.984ZM870.077 484.89C867.731 483.962 865.404 482.997 863.096 481.995L864.249 479.338C866.528 480.327 868.826 481.28 871.142 482.196L870.077 484.89ZM856.212 478.871L857.453 476.253C855.201 475.186 852.969 474.084 850.758 472.946L849.433 475.521C851.671 476.673 853.932 477.79 856.212 478.871ZM842.77 471.952L844.179 469.422C842.004 468.21 839.85 466.964 837.719 465.684L836.227 468.167C838.385 469.463 840.567 470.725 842.77 471.952ZM829.81 464.168L831.381 461.735C829.29 460.384 827.222 458.999 825.179 457.582L823.528 459.963C825.598 461.398 827.692 462.799 829.81 464.168ZM817.388 455.555L819.115 453.229C817.116 451.745 815.142 450.228 813.194 448.68L811.392 450.947C813.365 452.515 815.363 454.051 817.388 455.555ZM805.551 446.148L807.426 443.941C805.529 442.329 803.659 440.688 801.816 439.016L799.87 441.162C801.736 442.854 803.63 444.517 805.551 446.148ZM794.353 435.993L796.367 433.911C794.579 432.181 792.819 430.421 791.089 428.633L789.007 430.647C790.76 432.458 792.542 434.24 794.353 435.993ZM783.838 425.13L785.984 423.184C784.312 421.341 782.671 419.471 781.059 417.574L778.852 419.449C780.483 421.37 782.146 423.264 783.838 425.13ZM774.053 413.608L776.32 411.806C774.772 409.858 773.255 407.884 771.771 405.885L769.445 407.612C770.949 409.637 772.485 411.635 774.053 413.608ZM765.037 401.472L767.418 399.821C766.001 397.778 764.616 395.71 763.265 393.619L760.832 395.19C762.2 397.308 763.602 399.402 765.037 401.472ZM756.833 388.773L759.316 387.281C758.036 385.15 756.79 382.996 755.578 380.821L753.048 382.23C754.275 384.433 755.537 386.615 756.833 388.773ZM749.479 375.567L752.054 374.242C750.916 372.031 749.814 369.799 748.747 367.547L746.129 368.788C747.21 371.068 748.327 373.329 749.479 375.567ZM743.005 361.904L745.662 360.751C744.673 358.472 743.72 356.174 742.804 353.858L740.11 354.923C741.038 357.269 742.003 359.596 743.005 361.904ZM737.445 347.846L740.172 346.87C739.335 344.531 738.536 342.175 737.774 339.802L735.016 340.687C735.788 343.091 736.598 345.477 737.445 347.846ZM732.825 333.456L735.61 332.662C734.929 330.273 734.286 327.867 733.682 325.447L730.871 326.148C731.484 328.6 732.135 331.036 732.825 333.456ZM729.161 318.786L731.993 318.177C731.472 315.752 730.989 313.312 730.545 310.859L727.695 311.374C728.144 313.859 728.633 316.33 729.161 318.786ZM726.471 303.907L729.337 303.486C728.976 301.032 728.654 298.566 728.372 296.088L725.494 296.415C725.78 298.925 726.105 301.423 726.471 303.907ZM724.762 288.895L727.649 288.661C727.448 286.185 727.287 283.698 727.167 281.199L724.273 281.339C724.396 283.869 724.559 286.388 724.762 288.895Z" fill="#9380DF"/>
<g filter="url(#filter0_d)">
<path d="M15 66H795.791C867.07 66 919.875 132.224 904.005 201.714L869.212 354.057C858.423 401.296 818.239 436.078 769.941 439.982L15 501V66Z" fill="white"/>
</g>
<defs>
<filter id="filter0_d" x="0" y="51" width="921.838" height="465" filterUnits="userSpaceOnUse" color-interpolation-filters="sRGB">
<feFlood flood-opacity="0" result="BackgroundImageFix"/>
<feColorMatrix in="SourceAlpha" type="matrix" values="0 0 0 0 0 0 0 0 0 0 0 0 0 0 0 0 0 0 127 0"/>
<feOffset/>
<feGaussianBlur stdDeviation="7.5"/>
<feColorMatrix type="matrix" values="0 0 0 0 0.360784 0 0 0 0 0.360784 0 0 0 0 0.360784 0 0 0 0.15 0"/>
<feBlend mode="normal" in2="BackgroundImageFix" result="effect1_dropShadow"/>
<feBlend mode="normal" in="SourceGraphic" in2="effect1_dropShadow" result="shape"/>
</filter>
</defs>
</svg>
