<svg width="102" height="103" viewBox="0 0 102 103" fill="none" xmlns="http://www.w3.org/2000/svg">
<path d="M98.3807 51.1612C100.451 51.1612 102.143 52.8419 101.991 54.9065C101.291 64.4215 97.9302 73.5769 92.258 81.3107C85.8448 90.0548 76.8103 96.5262 66.4675 99.7843C56.1246 103.042 45.0123 102.918 34.7452 99.428C24.4782 95.9384 15.5914 89.2658 9.37615 80.3798C3.16094 71.4937 -0.0588205 60.8574 0.184742 50.0162C0.428305 39.175 4.1225 28.694 10.7305 20.0961C17.3385 11.4982 26.516 5.23136 36.9295 2.20634C46.1396 -0.469146 55.8922 -0.485434 65.0704 2.11984C67.0619 2.68514 68.0601 4.85148 67.35 6.7961L65.3126 12.3758C64.6026 14.3204 62.4533 15.3016 60.4476 14.7889C53.9695 13.133 47.1423 13.232 40.6778 15.1098C33.0092 17.3375 26.2507 21.9525 21.3844 28.2842C16.5181 34.6159 13.7976 42.3343 13.6183 50.318C13.4389 58.3017 15.81 66.1345 20.387 72.6784C24.964 79.2222 31.5084 84.1361 39.0693 86.7059C46.6302 89.2757 54.8135 89.3677 62.4302 86.9683C70.0469 84.5689 76.7001 79.8033 81.4229 73.3639C85.4041 67.9357 87.8388 61.5566 88.5052 54.9035C88.7116 52.8436 90.3704 51.1612 92.4406 51.1612H98.3807Z" fill="white"/>
<path d="M47.9954 73.8147L21.985 47.9177C21.835 47.7684 21.716 47.5908 21.6348 47.3953C21.5535 47.1998 21.5117 46.9901 21.5117 46.7784C21.5117 46.5666 21.5535 46.3569 21.6348 46.1614C21.716 45.9659 21.835 45.7884 21.985 45.6391L28.5515 39.0589C29.1789 38.4308 30.1931 38.4308 30.8205 39.0589L47.9443 56.0972C48.5718 56.7253 49.5932 56.718 50.2207 56.0899L88.0579 17.8505C88.6854 17.2151 89.7068 17.2151 90.3416 17.8432L96.9153 24.4234C97.5428 25.0514 97.5428 26.0666 96.9226 26.6946L55.7 68.33L55.7073 68.3373L50.2718 73.8074C49.6443 74.4355 48.6229 74.4355 47.9954 73.8147Z" fill="white" stroke="white" stroke-width="0.75" stroke-miterlimit="10"/>
</svg>
