<svg width="18" height="18" viewBox="0 0 18 18" fill="none" xmlns="http://www.w3.org/2000/svg">
<circle cx="9" cy="9" r="9" fill="#FF9C9C"/>
<path d="M10.106 6.384C10.106 7.392 10.07 8.31 9.998 9.138C9.926 9.954 9.836 10.77 9.728 11.586H8.684C8.576 10.77 8.486 9.954 8.414 9.138C8.342 8.31 8.306 7.392 8.306 6.384V3H10.106V6.384ZM10.412 14.502C10.412 14.826 10.304 15.108 10.088 15.348C9.872 15.588 9.578 15.708 9.206 15.708C8.834 15.708 8.54 15.588 8.324 15.348C8.108 15.108 8 14.826 8 14.502C8 14.178 8.108 13.896 8.324 13.656C8.54 13.416 8.834 13.296 9.206 13.296C9.578 13.296 9.872 13.416 10.088 13.656C10.304 13.896 10.412 14.178 10.412 14.502Z" fill="white"/>
</svg>
