<svg width="51" height="51" viewBox="0 0 51 51" fill="none" xmlns="http://www.w3.org/2000/svg">
<circle cx="25.5" cy="25.5" r="24.7273" stroke="#5C5C5C" stroke-width="1.54545"/>
<path d="M25.4799 13.4553C29.3963 13.4553 29.8489 13.475 31.4036 13.534C32.8403 13.5931 33.6078 13.8292 34.1195 14.0457C34.8083 14.3212 35.3003 14.6361 35.8119 15.1478C36.3236 15.6595 36.6385 16.1515 36.914 16.8403C37.1108 17.3519 37.347 18.1391 37.4257 19.5561C37.5044 21.1108 37.5044 21.5634 37.5044 25.4798C37.5044 29.3961 37.4847 29.8487 37.4257 31.4034C37.3667 32.8401 37.1305 33.6076 36.914 34.1193C36.6385 34.8081 36.3236 35.3001 35.8119 35.8118C35.3003 36.3234 34.8083 36.6383 34.1195 36.9138C33.6078 37.1106 32.8206 37.3468 31.4036 37.4255C29.8489 37.5042 29.3963 37.5042 25.4799 37.5042C21.5636 37.5042 21.111 37.4846 19.5563 37.4255C18.1196 37.3665 17.3521 37.1303 16.8404 36.9138C16.1516 36.6383 15.6596 36.3234 15.148 35.8118C14.6363 35.3001 14.3214 34.8081 14.0459 34.1193C13.8491 33.6076 13.6129 32.8204 13.5342 31.4034C13.4555 29.8487 13.4555 29.3961 13.4555 25.4798C13.4555 21.5634 13.4752 21.1108 13.5342 19.5561C13.5932 18.1195 13.8294 17.3519 14.0459 16.8403C14.3214 16.1515 14.6363 15.6595 15.148 15.1478C15.6596 14.6361 16.1516 14.3212 16.8404 14.0457C17.3521 13.8489 18.1393 13.6127 19.5563 13.534C21.0913 13.475 21.5636 13.4553 25.4799 13.4553ZM25.4799 10.8182C21.4849 10.8182 20.9929 10.8379 19.4382 10.8969C17.8835 10.9756 16.8208 11.2118 15.8761 11.5857C14.9118 11.9596 14.0852 12.4516 13.2784 13.2782C12.4715 14.1047 11.9598 14.9116 11.5859 15.8759C11.2316 16.8009 10.9758 17.8833 10.8971 19.438C10.838 20.9927 10.8184 21.4847 10.8184 25.4798C10.8184 29.4551 10.838 29.9668 10.8971 31.5215C10.9758 33.0762 11.212 34.139 11.5859 35.0836C11.9598 36.0479 12.4518 36.8745 13.2784 37.6814C14.0852 38.4882 14.9118 38.9999 15.8761 39.3738C16.8011 39.7281 17.8835 39.9839 19.4382 40.0626C20.9929 40.1414 21.5046 40.1414 25.4799 40.1414C29.4553 40.1414 29.967 40.1217 31.5217 40.0626C33.0764 39.9839 34.1391 39.7478 35.0838 39.3738C36.0481 38.9999 36.8747 38.5079 37.6815 37.6814C38.4884 36.8745 39.0001 36.0479 39.374 35.0836C39.7283 34.1586 39.9841 33.0762 40.0628 31.5215C40.1415 29.9668 40.1415 29.4551 40.1415 25.4798C40.1415 21.5044 40.1219 20.9927 40.0628 19.438C39.9841 17.8833 39.7479 16.8206 39.374 15.8759C39.0001 14.9116 38.5081 14.0851 37.6815 13.2782C36.8747 12.4713 36.0481 11.9596 35.0838 11.5857C34.1588 11.2315 33.0764 10.9756 31.5217 10.8969C29.9473 10.8379 29.4553 10.8182 25.4799 10.8182Z" fill="#5C5C5C"/>
<path d="M25.4792 17.9423C21.3267 17.9423 17.9614 21.3076 17.9614 25.4601C17.9614 29.6126 21.3267 32.9778 25.4792 32.9778C29.6317 32.9778 32.9969 29.6126 32.9969 25.4601C32.9969 21.3076 29.6317 17.9423 25.4792 17.9423ZM25.4792 30.3604C22.783 30.3604 20.5985 28.1759 20.5985 25.4798C20.5985 22.7836 22.783 20.5991 25.4792 20.5991C28.1753 20.5991 30.3598 22.7836 30.3598 25.4798C30.3598 28.1759 28.1753 30.3604 25.4792 30.3604Z" fill="#5C5C5C"/>
<path d="M33.293 19.3989C34.2604 19.3989 35.0445 18.6147 35.0445 17.6473C35.0445 16.68 34.2604 15.8958 33.293 15.8958C32.3257 15.8958 31.5415 16.68 31.5415 17.6473C31.5415 18.6147 32.3257 19.3989 33.293 19.3989Z" fill="#5C5C5C"/>
</svg>
