<svg width="50" height="50" viewBox="0 0 50 50" fill="none" xmlns="http://www.w3.org/2000/svg">
<circle cx="24.8181" cy="24.7273" r="23.9545" stroke="#5C5C5C" stroke-width="1.54545"/>
<path d="M23.7305 33.9352H25.4856C25.4856 33.9352 26.0157 33.8813 26.2867 33.6123C26.5358 33.365 26.5278 32.901 26.5278 32.901C26.5278 32.901 26.4935 30.7284 27.5863 30.4084C28.664 30.0931 30.0476 32.5082 31.514 33.4369C32.623 34.1395 33.4657 33.9857 33.4657 33.9857L37.3871 33.9352C37.3871 33.9352 39.4383 33.8184 38.4656 32.3305C38.386 32.209 37.899 31.2299 35.5499 29.2182C33.0908 27.1128 33.4205 27.4534 36.3824 23.8114C38.1861 21.5935 38.9071 20.2395 38.6818 19.6596C38.4672 19.1072 37.1404 19.2531 37.1404 19.2531L32.7252 19.2783C32.7252 19.2783 32.3977 19.2371 32.1551 19.3711C31.9178 19.5021 31.7655 19.8081 31.7655 19.8081C31.7655 19.8081 31.0664 21.5243 30.1348 22.984C28.1688 26.0638 27.3826 26.2269 27.0612 26.0353C26.3135 25.5896 26.5003 24.2449 26.5003 23.2894C26.5003 20.3046 26.9911 19.0601 25.5447 18.7379C25.0648 18.6311 24.7114 18.5604 23.4839 18.5489C21.9084 18.5341 20.5753 18.5533 19.8203 18.8946C19.318 19.1215 18.9304 19.6271 19.1666 19.6562C19.4584 19.6921 20.1191 19.8207 20.4695 20.2605C20.9221 20.8285 20.9062 22.1037 20.9062 22.1037C20.9062 22.1037 21.1663 25.6173 20.2991 26.0536C19.704 26.353 18.8876 25.7419 17.1347 22.9477C16.2368 21.5164 15.5586 19.9342 15.5586 19.9342C15.5586 19.9342 15.428 19.6385 15.1948 19.4803C14.9119 19.2885 14.5165 19.2278 14.5165 19.2278L10.3208 19.253C10.3208 19.253 9.69111 19.2693 9.45973 19.5219C9.25387 19.7469 9.44328 20.2115 9.44328 20.2115C9.44328 20.2115 12.7278 27.3012 16.4473 30.8741C19.8581 34.1502 23.7305 33.9352 23.7305 33.9352Z" fill="#5C5C5C"/>
</svg>
