<svg width="233" height="72" viewBox="0 0 233 72" fill="none" xmlns="http://www.w3.org/2000/svg">
<rect x="134" y="6" width="99" height="42" fill="#7769AE"/>
<path d="M163.573 43.6087H158.773V37H143.392V43.6087H138.659V32.5379H140.907C144.04 26.87 145.769 20.2782 146.096 12.7625H160.125V32.5379H163.573V43.6087ZM154.649 32.5379V17.3091H150.524C150.4 19.5515 149.972 22.0755 149.24 24.8812C148.507 27.687 147.6 30.2392 146.519 32.5379H154.649ZM182.148 37H167.612V12.7625H181.59V17.2077H173.072V22.5995H180.999V27.0278H173.072V32.5717H182.148V37ZM207.011 37H201.535V27.1292H191.495V37H186.036V12.7625H191.495V22.4304H201.535V12.7625H207.011V37ZM229.592 17.2077H222.679V37H217.203V17.2077H210.324V12.7625H229.592V17.2077Z" fill="white"/>
<path d="M27.2123 43.6087H22.4121V37H2.77193V12.7625H8.23129V32.335H18.2711V12.7625H23.7474V32.335H27.2123V43.6087ZM53.0048 37H47.8497V23.6812C47.8497 22.1487 47.906 20.8416 48.0187 19.7599H47.9173C47.6807 20.2219 47.275 20.8924 46.7003 21.7713L36.6943 37H31.2012V12.7625H36.3563V26.1658C36.3563 27.8222 36.3112 28.9321 36.2211 29.4955H36.2887C36.345 29.3603 36.7619 28.7011 37.5394 27.518L47.1567 12.7625H53.0048V37ZM72.983 34.3633V37.1352H67.6758V34.3633H67.1011C64.0024 34.3633 61.5403 33.4506 59.7149 31.6252C57.9008 29.7885 56.9937 27.4165 56.9937 24.5094C56.9937 21.6698 57.8839 19.3881 59.6642 17.6641C61.4558 15.9288 63.9123 15.0611 67.0335 15.0611H67.6758V12.2892H72.983V15.0611H73.6084C76.7522 15.0611 79.2142 15.9232 80.9946 17.6472C82.7862 19.3712 83.682 21.6586 83.682 24.5094C83.682 27.4165 82.7693 29.7885 80.9439 31.6252C79.1185 33.4506 76.6508 34.3633 73.5408 34.3633H72.983ZM72.983 19.1345V30.2223H73.2197C74.7296 30.2223 75.9127 29.7152 76.7691 28.7011C77.6367 27.6757 78.0705 26.3235 78.0705 24.6446C78.0705 22.9657 77.6367 21.6304 76.7691 20.6388C75.9127 19.636 74.7408 19.1345 73.2535 19.1345H72.983ZM67.6758 30.2223V19.1345H67.3715C65.9067 19.1345 64.7405 19.636 63.8728 20.6388C63.0165 21.6417 62.5883 22.9769 62.5883 24.6446C62.5883 26.3348 63.0108 27.687 63.8559 28.7011C64.7123 29.7152 65.8954 30.2223 67.4053 30.2223H67.6758ZM93.0795 28.6504V37H87.6202V12.7625H96.1726C102.28 12.7625 105.334 15.3372 105.334 20.4867C105.334 22.9206 104.455 24.8925 102.697 26.4024C100.95 27.9011 98.6121 28.6504 95.6825 28.6504H93.0795ZM93.0795 16.9542V24.5094H95.2261C98.1333 24.5094 99.5868 23.2361 99.5868 20.6895C99.5868 18.1993 98.1333 16.9542 95.2261 16.9542H93.0795ZM118.99 37.4226C115.52 37.4226 112.692 36.2957 110.506 34.0421C108.32 31.7773 107.227 28.8307 107.227 25.2024C107.227 21.3712 108.336 18.2725 110.556 15.9063C112.776 13.54 115.717 12.3568 119.379 12.3568C122.838 12.3568 125.633 13.4893 127.763 15.7541C129.903 18.019 130.974 21.005 130.974 24.7122C130.974 28.5208 129.864 31.5913 127.644 33.9238C125.436 36.2563 122.551 37.4226 118.99 37.4226ZM119.227 17.0556C117.311 17.0556 115.79 17.7767 114.663 19.2191C113.537 20.6501 112.973 22.5488 112.973 24.915C112.973 27.3151 113.537 29.2138 114.663 30.611C115.79 32.0083 117.266 32.7069 119.092 32.7069C120.974 32.7069 122.467 32.0308 123.571 30.6786C124.675 29.3152 125.227 27.4278 125.227 25.0165C125.227 22.5037 124.692 20.5487 123.622 19.1514C122.551 17.7542 121.086 17.0556 119.227 17.0556Z" fill="#7769AE"/>
<path d="M0.66481 66.4606V65.2002C1.44042 65.7681 2.31991 66.052 3.30327 66.052C4.01887 66.052 4.58673 65.8789 5.00685 65.5326C5.43159 65.1864 5.64396 64.7201 5.64396 64.1338C5.64396 62.8595 4.78294 62.2224 3.06089 62.2224H2.02905V61.2598H2.97779C3.71185 61.2598 4.27971 61.1006 4.68137 60.782C5.08764 60.4635 5.29078 60.0133 5.29078 59.4316C5.29078 58.933 5.12227 58.5337 4.78525 58.2336C4.45284 57.9335 3.99348 57.7834 3.40715 57.7834C2.57614 57.7834 1.76821 58.0443 0.983364 58.566V57.3887C1.71281 56.9824 2.55305 56.7793 3.5041 56.7793C4.44592 56.7793 5.1869 57.0032 5.72706 57.451C6.26722 57.8989 6.5373 58.4875 6.5373 59.2169C6.5373 60.505 5.90942 61.3176 4.65367 61.6546V61.6823C5.33694 61.7608 5.87941 62.017 6.28107 62.451C6.68272 62.8849 6.88355 63.4228 6.88355 64.0645C6.88355 64.974 6.56038 65.6988 5.91404 66.239C5.26769 66.7745 4.38359 67.0423 3.26172 67.0423C2.13986 67.0423 1.27422 66.8484 0.66481 66.4606ZM15.7892 56.9455L12.7214 63.8775C12.1766 65.1056 11.6503 65.9412 11.1425 66.3844C10.6346 66.8276 10.0806 67.0492 9.48046 67.0492C8.98647 67.0492 8.57328 66.9777 8.24087 66.8345V65.6573C8.63791 65.8927 9.0211 66.0105 9.39044 66.0105C9.76439 66.0105 10.1083 65.8673 10.4223 65.5811C10.7362 65.2903 11.0755 64.7801 11.4403 64.0507L8.07467 56.9455H9.39736L11.7796 62.2501C11.8211 62.3378 11.9066 62.5525 12.0358 62.8942H12.0497C12.0635 62.8526 12.1582 62.6287 12.3336 62.2224L14.5427 56.9455H15.7892ZM17.008 66.8761V56.9455H22.3127V57.9981H18.1715V61.156H20.0551C21.0431 61.156 21.8118 61.396 22.3612 61.8762C22.9105 62.3517 23.1852 63.0304 23.1852 63.9122C23.1852 64.8263 22.8967 65.5488 22.3196 66.0797C21.7425 66.6106 20.9554 66.8761 19.9581 66.8761H17.008ZM18.1715 62.2086V65.8235H19.8058C20.4937 65.8235 21.0246 65.6619 21.3986 65.3387C21.7725 65.0156 21.9595 64.5631 21.9595 63.9814C21.9595 62.7995 21.2416 62.2086 19.8058 62.2086H18.1715ZM29.127 67.0423C27.7189 67.0423 26.5901 66.5783 25.7406 65.6504C24.8957 64.7224 24.4733 63.5151 24.4733 62.0285C24.4733 60.4311 24.905 59.1569 25.7683 58.2059C26.6316 57.2548 27.8066 56.7793 29.2932 56.7793C30.6643 56.7793 31.7677 57.241 32.6034 58.1643C33.4436 59.0877 33.8637 60.2949 33.8637 61.7861C33.8637 63.4066 33.4344 64.6878 32.5757 65.6296C31.717 66.5714 30.5674 67.0423 29.127 67.0423ZM29.2101 57.8319C28.1667 57.8319 27.3195 58.2082 26.6686 58.9607C26.0176 59.7132 25.6921 60.7012 25.6921 61.9247C25.6921 63.1481 26.0084 64.1338 26.6409 64.8817C27.278 65.625 28.1067 65.9966 29.127 65.9966C30.2165 65.9966 31.0752 65.6411 31.7031 64.9301C32.331 64.2192 32.6449 63.2243 32.6449 61.9454C32.6449 60.6343 32.3402 59.6209 31.7308 58.9053C31.1214 58.1897 30.2812 57.8319 29.2101 57.8319ZM41.6891 57.9981H38.8221V66.8761H37.6587V57.9981H34.7986V56.9455H41.6891V57.9981ZM48.5173 66.8761H43.2542V56.9455H48.2957V57.9981H44.4176V61.3014H48.0048V62.3471H44.4176V65.8235H48.5173V66.8761ZM57.2844 66.8761H55.8648L53.5795 63.0742C53.5103 62.9588 53.4341 62.7949 53.351 62.5825H53.3233C53.2771 62.6887 53.1986 62.8526 53.0878 63.0742L50.7333 66.8761H49.3067L52.6308 61.8831L49.5699 56.9455H50.9964L53.0255 60.4358C53.1594 60.6666 53.2771 60.8974 53.3787 61.1283H53.4064C53.5541 60.8236 53.6834 60.5835 53.7942 60.4081L55.9063 56.9455H57.2429L54.1197 61.8693L57.2844 66.8761ZM66.2594 66.8761H65.096V62.3471H59.9575V66.8761H58.7941V56.9455H59.9575V61.3014H65.096V56.9455H66.2594V66.8761ZM76.8686 66.8761H75.7052V59.7017C75.7052 59.0554 75.7283 58.6006 75.7745 58.3374H75.7329C75.6452 58.5637 75.539 58.7714 75.4144 58.9607L70.3036 66.8761H68.8632V56.9455H70.0266V63.9399C70.0266 64.6878 70.0082 65.1748 69.9712 65.4011H69.9989C70.1005 65.1979 70.2298 64.9763 70.3867 64.7362L75.3728 56.9455H76.8686V66.8761ZM86.169 66.8761H85.0056V62.4094C83.9484 62.968 82.965 63.2473 82.0555 63.2473C81.1876 63.2473 80.5158 63.0234 80.0403 62.5756C79.5694 62.1232 79.334 61.4907 79.334 60.6781V56.9455H80.4974V60.6227C80.4974 61.6892 81.0652 62.2224 82.201 62.2224C83.0227 62.2224 83.9576 61.9685 85.0056 61.4607V56.9455H86.169V66.8761ZM94.126 66.8761H88.8629V56.9455H93.9044V57.9981H90.0263V61.3014H93.6135V62.3471H90.0263V65.8235H94.126V66.8761ZM102.796 66.4606C102.062 66.8484 101.148 67.0423 100.054 67.0423C98.6411 67.0423 97.51 66.5876 96.6606 65.6781C95.8111 64.7686 95.3863 63.5751 95.3863 62.0978C95.3863 60.5096 95.8642 59.2262 96.8198 58.2474C97.7755 57.2687 98.9874 56.7793 100.456 56.7793C101.397 56.7793 102.178 56.9155 102.796 57.1879V58.4275C102.085 58.0304 101.3 57.8319 100.442 57.8319C99.3013 57.8319 98.3757 58.2128 97.6647 58.9746C96.9583 59.7363 96.6052 60.7543 96.6052 62.0285C96.6052 63.2381 96.9353 64.203 97.5955 64.9232C98.2603 65.6388 99.1305 65.9966 100.206 65.9966C101.203 65.9966 102.067 65.775 102.796 65.3318V66.4606ZM111.73 66.8761H110.109L106.273 62.3332C106.129 62.1624 106.042 62.047 106.009 61.987H105.982V66.8761H104.818V56.9455H105.982V61.613H106.009C106.074 61.5115 106.162 61.3983 106.273 61.2737L109.984 56.9455H111.432L107.173 61.71L111.73 66.8761ZM120.732 66.8761H119.444L118.392 64.0922H114.181L113.191 66.8761H111.896L115.705 56.9455H116.91L120.732 66.8761ZM118.011 63.0465L116.453 58.8153C116.402 58.6768 116.351 58.4552 116.3 58.1505H116.272C116.226 58.4321 116.173 58.6537 116.113 58.8153L114.569 63.0465H118.011ZM127.969 66.8761H126.806V62.6518H125.358C125.081 62.6518 124.836 62.728 124.624 62.8803C124.416 63.0281 124.192 63.3628 123.952 63.8845L122.706 66.8761H121.321L122.831 63.559C122.927 63.342 123.075 63.1135 123.274 62.8734C123.477 62.6287 123.712 62.4556 123.98 62.354V62.3263C123.32 62.1832 122.805 61.8808 122.436 61.4191C122.071 60.9574 121.889 60.3988 121.889 59.7432C121.889 58.8984 122.182 58.222 122.768 57.7142C123.359 57.2017 124.132 56.9455 125.088 56.9455H127.969V66.8761ZM126.806 61.5992V57.9981H125.192C124.536 57.9981 124.026 58.1528 123.662 58.4621C123.301 58.7714 123.121 59.2077 123.121 59.7709C123.121 60.3342 123.306 60.7797 123.675 61.1075C124.045 61.4353 124.541 61.5992 125.164 61.5992H126.806ZM141.397 66.8761H140.233V57.9981H137.477C137.159 60.5004 136.907 62.2686 136.722 63.3027C136.538 64.3369 136.351 65.0987 136.161 65.588C135.972 66.0774 135.716 66.4421 135.393 66.6822C135.069 66.9176 134.682 67.0354 134.229 67.0354C133.865 67.0354 133.548 66.9869 133.28 66.8899V65.7958C133.516 65.9297 133.777 65.9966 134.063 65.9966C134.349 65.9966 134.617 65.8258 134.866 65.4842C135.12 65.1425 135.376 64.2538 135.635 62.818C135.898 61.3822 136.189 59.4247 136.508 56.9455H141.397V66.8761ZM151.701 66.8761H150.413L149.361 64.0922H145.15L144.16 66.8761H142.865L146.674 56.9455H147.879L151.701 66.8761ZM148.98 63.0465L147.422 58.8153C147.371 58.6768 147.32 58.4552 147.269 58.1505H147.242C147.195 58.4321 147.142 58.6537 147.082 58.8153L145.538 63.0465H148.98ZM153.169 66.8761V56.9455H158.474V57.9981H154.333V61.156H156.216C157.204 61.156 157.973 61.396 158.522 61.8762C159.072 62.3517 159.347 63.0304 159.347 63.9122C159.347 64.8263 159.058 65.5488 158.481 66.0797C157.904 66.6106 157.117 66.8761 156.119 66.8761H153.169ZM154.333 62.2086V65.8235H155.967C156.655 65.8235 157.186 65.6619 157.56 65.3387C157.934 65.0156 158.121 64.5631 158.121 63.9814C158.121 62.7995 157.403 62.2086 155.967 62.2086H154.333ZM165.288 67.0423C163.88 67.0423 162.751 66.5783 161.902 65.6504C161.057 64.7224 160.635 63.5151 160.635 62.0285C160.635 60.4311 161.066 59.1569 161.93 58.2059C162.793 57.2548 163.968 56.7793 165.455 56.7793C166.826 56.7793 167.929 57.241 168.765 58.1643C169.605 59.0877 170.025 60.2949 170.025 61.7861C170.025 63.4066 169.596 64.6878 168.737 65.6296C167.878 66.5714 166.729 67.0423 165.288 67.0423ZM165.371 57.8319C164.328 57.8319 163.481 58.2082 162.83 58.9607C162.179 59.7132 161.853 60.7012 161.853 61.9247C161.853 63.1481 162.17 64.1338 162.802 64.8817C163.439 65.625 164.268 65.9966 165.288 65.9966C166.378 65.9966 167.237 65.6411 167.864 64.9301C168.492 64.2192 168.806 63.2243 168.806 61.9454C168.806 60.6343 168.502 59.6209 167.892 58.9053C167.283 58.1897 166.442 57.8319 165.371 57.8319ZM173.141 63.1227V66.8761H171.978V56.9455H174.706C175.768 56.9455 176.59 57.204 177.172 57.7211C177.758 58.2382 178.051 58.9676 178.051 59.9094C178.051 60.8513 177.726 61.6223 177.075 62.2224C176.428 62.8226 175.554 63.1227 174.45 63.1227H173.141ZM173.141 57.9981V62.0701H174.36C175.164 62.0701 175.775 61.8877 176.195 61.523C176.62 61.1537 176.832 60.6343 176.832 59.9648C176.832 58.6537 176.057 57.9981 174.506 57.9981H173.141ZM187.615 66.8761H186.327L185.274 64.0922H181.064L180.073 66.8761H178.778L182.587 56.9455H183.792L187.615 66.8761ZM184.893 63.0465L183.335 58.8153C183.284 58.6768 183.234 58.4552 183.183 58.1505H183.155C183.109 58.4321 183.056 58.6537 182.996 58.8153L181.452 63.0465H184.893ZM194.955 57.9981H192.088V66.8761H190.925V57.9981H188.065V56.9455H194.955V57.9981ZM200.523 67.0423C199.115 67.0423 197.986 66.5783 197.137 65.6504C196.292 64.7224 195.87 63.5151 195.87 62.0285C195.87 60.4311 196.301 59.1569 197.165 58.2059C198.028 57.2548 199.203 56.7793 200.689 56.7793C202.061 56.7793 203.164 57.241 204 58.1643C204.84 59.0877 205.26 60.2949 205.26 61.7861C205.26 63.4066 204.831 64.6878 203.972 65.6296C203.113 66.5714 201.964 67.0423 200.523 67.0423ZM200.606 57.8319C199.563 57.8319 198.716 58.2082 198.065 58.9607C197.414 59.7132 197.088 60.7012 197.088 61.9247C197.088 63.1481 197.405 64.1338 198.037 64.8817C198.674 65.625 199.503 65.9966 200.523 65.9966C201.613 65.9966 202.472 65.6411 203.099 64.9301C203.727 64.2192 204.041 63.2243 204.041 61.9454C204.041 60.6343 203.736 59.6209 203.127 58.9053C202.518 58.1897 201.677 57.8319 200.606 57.8319ZM208.376 63.1227V66.8761H207.213V56.9455H209.941C211.003 56.9455 211.825 57.204 212.407 57.7211C212.993 58.2382 213.286 58.9676 213.286 59.9094C213.286 60.8513 212.961 61.6223 212.31 62.2224C211.663 62.8226 210.789 63.1227 209.685 63.1227H208.376ZM208.376 57.9981V62.0701H209.595C210.398 62.0701 211.01 61.8877 211.43 61.523C211.855 61.1537 212.067 60.6343 212.067 59.9648C212.067 58.6537 211.292 57.9981 209.741 57.9981H208.376ZM223.168 66.8761H222.005V59.7017C222.005 59.0554 222.028 58.6006 222.074 58.3374H222.033C221.945 58.5637 221.839 58.7714 221.714 58.9607L216.603 66.8761H215.163V56.9455H216.326V63.9399C216.326 64.6878 216.308 65.1748 216.271 65.4011H216.299C216.4 65.1979 216.529 64.9763 216.686 64.7362L221.672 56.9455H223.168V66.8761ZM231.555 66.8761H230.391V62.6518H228.944C228.667 62.6518 228.422 62.728 228.21 62.8803C228.002 63.0281 227.778 63.3628 227.538 63.8845L226.292 66.8761H224.907L226.416 63.559C226.513 63.342 226.661 63.1135 226.859 62.8734C227.063 62.6287 227.298 62.4556 227.566 62.354V62.3263C226.906 62.1832 226.391 61.8808 226.021 61.4191C225.657 60.9574 225.474 60.3988 225.474 59.7432C225.474 58.8984 225.768 58.222 226.354 57.7142C226.945 57.2017 227.718 56.9455 228.674 56.9455H231.555V66.8761ZM230.391 61.5992V57.9981H228.778C228.122 57.9981 227.612 58.1528 227.247 58.4621C226.887 58.7714 226.707 59.2077 226.707 59.7709C226.707 60.3342 226.892 60.7797 227.261 61.1075C227.63 61.4353 228.127 61.5992 228.75 61.5992H230.391Z" fill="#333333"/>
</svg>
