<svg width="20" height="16" viewBox="0 0 20 16" fill="none" xmlns="http://www.w3.org/2000/svg">
<path fill-rule="evenodd" clip-rule="evenodd" d="M13.3431 0.928941L19.7071 7.2929C20.0976 7.68343 20.0976 8.31659 19.7071 8.70711L13.3431 15.0711C12.9526 15.4616 12.3195 15.4616 11.9289 15.0711C11.5384 14.6806 11.5384 14.0474 11.9289 13.6569L16.5858 9.00001L1.74846e-07 9.00001L0 7.00001L16.5858 7.00001L11.9289 2.34315C11.5384 1.95263 11.5384 1.31947 11.9289 0.928941C12.3195 0.538416 12.9526 0.538416 13.3431 0.928941Z" fill="#8C77DE"/>
<path fill-rule="evenodd" clip-rule="evenodd" d="M13.3431 0.928941L19.7071 7.2929C20.0976 7.68343 20.0976 8.31659 19.7071 8.70711L13.3431 15.0711C12.9526 15.4616 12.3195 15.4616 11.9289 15.0711C11.5384 14.6806 11.5384 14.0474 11.9289 13.6569L16.5858 9.00001L1.74846e-07 9.00001L0 7.00001L16.5858 7.00001L11.9289 2.34315C11.5384 1.95263 11.5384 1.31947 11.9289 0.928941C12.3195 0.538416 12.9526 0.538416 13.3431 0.928941Z" fill="#6150A7"/>
</svg>
