<svg width="58" height="58" viewBox="0 0 58 58" fill="none" xmlns="http://www.w3.org/2000/svg">
<path d="M29 3.625C14.9871 3.625 3.625 14.9871 3.625 29C3.625 43.0129 14.9871 54.375 29 54.375C43.0129 54.375 54.375 43.0129 54.375 29C54.375 14.9871 43.0129 3.625 29 3.625ZM29 50.0703C17.366 50.0703 7.92969 40.634 7.92969 29C7.92969 17.366 17.366 7.92969 29 7.92969C40.634 7.92969 50.0703 17.366 50.0703 29C50.0703 40.634 40.634 50.0703 29 50.0703Z" fill="white"/>
<path d="M38.8441 19.9375C38.8441 19.6883 38.6402 19.4844 38.391 19.4844L34.6527 19.5014L29.0227 26.2133L23.3982 19.507L19.6543 19.49C19.4051 19.49 19.2012 19.6883 19.2012 19.9432C19.2012 20.0508 19.2408 20.1527 19.3088 20.2377L26.6777 29.017L19.3088 37.7906C19.2403 37.8736 19.2024 37.9776 19.2012 38.0852C19.2012 38.3344 19.4051 38.5383 19.6543 38.5383L23.3982 38.5213L29.0227 31.8094L34.6471 38.5156L38.3854 38.5326C38.6346 38.5326 38.8385 38.3344 38.8385 38.0795C38.8385 37.9719 38.7988 37.8699 38.7309 37.785L31.3732 29.0113L38.7422 20.232C38.8102 20.1527 38.8441 20.0451 38.8441 19.9375Z" fill="white"/>
</svg>
