<svg width="20" height="33" viewBox="0 0 20 33" fill="none" xmlns="http://www.w3.org/2000/svg">
<path d="M19.457 15.2123L4.30738 0.527191C3.95699 0.187267 3.48925 0 2.99051 0C2.49177 0 2.02402 0.187267 1.67363 0.527191L0.55797 1.6084C-0.168 2.31293 -0.168 3.458 0.55797 4.16145L13.2795 16.4932L0.543854 28.8385C0.193463 29.1785 0 29.6316 0 30.1148C0 30.5985 0.193463 31.0517 0.543854 31.3919L1.65952 32.4728C2.01018 32.8127 2.47765 33 2.97639 33C3.47513 33 3.94287 32.8127 4.29327 32.4728L19.457 17.7742C19.8082 17.4332 20.0011 16.978 20 16.494C20.0011 16.0081 19.8082 15.5531 19.457 15.2123Z" fill="white"/>
</svg>
