<svg width="20" height="33" viewBox="0 0 20 33" fill="none" xmlns="http://www.w3.org/2000/svg">
<path d="M0.543026 15.2123L15.6926 0.527191C16.043 0.187267 16.5108 0 17.0095 0C17.5082 0 17.976 0.187267 18.3264 0.527191L19.442 1.6084C20.168 2.31293 20.168 3.458 19.442 4.16145L6.72055 16.4932L19.4561 28.8385C19.8065 29.1785 20 29.6316 20 30.1148C20 30.5985 19.8065 31.0517 19.4561 31.3919L18.3405 32.4728C17.9898 32.8127 17.5223 33 17.0236 33C16.5249 33 16.0571 32.8127 15.7067 32.4728L0.543026 17.7742C0.191805 17.4332 -0.00110435 16.978 3.8147e-06 16.494C-0.00110435 16.0081 0.191805 15.5531 0.543026 15.2123Z" fill="white"/>
</svg>
