<svg width="717" height="347" viewBox="0 0 717 347" fill="none" xmlns="http://www.w3.org/2000/svg">
<path d="M503.003 310.117C539.532 276.612 557.797 259.86 566.066 246.256C600.638 189.38 578.273 115.083 518.049 86.7421C503.644 79.9635 479.167 76.0773 430.213 68.3048L0 0V347H408.226C419.039 347 424.445 347 429.662 346.511C450.434 344.563 470.25 336.852 486.875 324.246C491.05 321.081 495.034 317.426 503.003 310.117Z" fill="#8C77DE"/>
<path fill-rule="evenodd" clip-rule="evenodd" d="M331 257.848C367.367 257.848 396.848 228.367 396.848 192C396.848 155.633 367.367 126.152 331 126.152C294.633 126.152 265.152 155.633 265.152 192C265.152 228.367 294.633 257.848 331 257.848ZM331 286.336C383.1 286.336 425.336 244.1 425.336 192C425.336 139.9 383.1 97.6641 331 97.6641C278.9 97.6641 236.664 139.9 236.664 192C236.664 244.1 278.9 286.336 331 286.336Z" fill="#9380DF"/>
<path fill-rule="evenodd" clip-rule="evenodd" d="M435.965 194.757L433.946 194.705C433.969 193.806 433.981 192.904 433.981 192C433.981 191.096 433.969 190.194 433.946 189.295L435.965 189.243C435.988 190.159 436 191.078 436 192C436 192.922 435.988 193.841 435.965 194.757ZM435.681 183.754L433.668 183.91C433.528 182.109 433.342 180.321 433.11 178.547L435.113 178.286C435.348 180.095 435.538 181.917 435.681 183.754ZM434.259 172.856L432.273 173.221C431.946 171.447 431.574 169.689 431.157 167.947L433.121 167.478C433.546 169.253 433.926 171.046 434.259 172.856ZM431.701 162.167L429.765 162.74C429.254 161.011 428.698 159.302 428.1 157.613L430.004 156.939C430.614 158.661 431.18 160.405 431.701 162.167ZM428.033 151.807L426.167 152.581C425.477 150.917 424.745 149.276 423.972 147.657L425.794 146.787C426.582 148.437 427.329 150.111 428.033 151.807ZM423.294 141.89L421.521 142.855C420.66 141.274 419.76 139.718 418.82 138.188L420.541 137.131C421.499 138.691 422.417 140.278 423.294 141.89ZM417.542 132.523L415.879 133.668C414.859 132.186 413.8 130.732 412.706 129.308L414.307 128.078C415.423 129.53 416.502 131.012 417.542 132.523ZM410.845 123.807L409.31 125.119C408.141 123.752 406.938 122.417 405.7 121.113L407.165 119.723C408.426 121.052 409.653 122.414 410.845 123.807ZM403.277 115.835L401.887 117.3C400.583 116.062 399.248 114.859 397.881 113.69L399.193 112.155C400.586 113.347 401.948 114.574 403.277 115.835ZM394.922 108.693L393.692 110.294C392.268 109.2 390.814 108.141 389.332 107.121L390.477 105.458C391.988 106.498 393.47 107.577 394.922 108.693ZM385.869 102.459L384.812 104.18C383.282 103.24 381.726 102.34 380.145 101.479L381.11 99.7058C382.722 100.583 384.309 101.501 385.869 102.459ZM376.213 97.2061L375.343 99.0281C373.725 98.2548 372.083 97.5226 370.419 96.8327L371.193 94.9675C372.889 95.671 374.563 96.4176 376.213 97.2061ZM366.061 92.9964L365.387 94.8998C363.698 94.3015 361.989 93.7462 360.26 93.2349L360.833 91.2986C362.595 91.82 364.339 92.3863 366.061 92.9964ZM355.522 89.879L355.053 91.8428C353.311 91.4262 351.553 91.0539 349.779 90.727L350.144 88.7412C351.954 89.0745 353.747 89.4542 355.522 89.879ZM344.714 87.8875L344.453 89.8898C342.679 89.6584 340.891 89.4721 339.09 89.3322L339.246 87.3191C341.083 87.4617 342.906 87.6516 344.714 87.8875ZM333.757 87.0355L333.705 89.054C332.806 89.0309 331.904 89.0192 331 89.0192C330.096 89.0192 329.194 89.0309 328.295 89.054L328.243 87.0355C329.159 87.0119 330.078 87 331 87C331.922 87 332.841 87.0119 333.757 87.0355ZM322.754 87.3191L322.91 89.3322C321.109 89.4721 319.321 89.6584 317.547 89.8898L317.286 87.8875C319.095 87.6516 320.917 87.4617 322.754 87.3191ZM311.856 88.7412L312.221 90.727C310.447 91.0538 308.689 91.4262 306.947 91.8428L306.478 89.879C308.253 89.4542 310.046 89.0745 311.856 88.7412ZM301.167 91.2986L301.74 93.2349C300.011 93.7461 298.302 94.3015 296.613 94.8997L295.939 92.9964C297.661 92.3863 299.405 91.82 301.167 91.2986ZM290.807 94.9675L291.581 96.8327C289.917 97.5225 288.276 98.2548 286.657 99.028L285.787 97.2061C287.437 96.4176 289.111 95.6709 290.807 94.9675ZM280.89 99.7058L281.855 101.479C280.274 102.34 278.718 103.24 277.188 104.18L276.131 102.459C277.691 101.501 279.278 100.583 280.89 99.7058ZM271.523 105.458L272.668 107.121C271.186 108.141 269.732 109.2 268.308 110.294L267.078 108.693C268.53 107.577 270.012 106.498 271.523 105.458ZM262.807 112.155L264.119 113.69C262.752 114.859 261.417 116.062 260.113 117.3L258.723 115.835C260.052 114.574 261.414 113.347 262.807 112.155ZM254.835 119.723L256.3 121.113C255.062 122.417 253.859 123.752 252.69 125.119L251.155 123.807C252.347 122.414 253.574 121.052 254.835 119.723ZM247.693 128.078L249.294 129.308C248.2 130.732 247.141 132.186 246.121 133.668L244.458 132.523C245.498 131.012 246.577 129.53 247.693 128.078ZM241.459 137.131L243.18 138.188C242.24 139.718 241.34 141.274 240.479 142.855L238.706 141.89C239.583 140.278 240.501 138.691 241.459 137.131ZM236.206 146.787L238.028 147.657C237.255 149.275 236.523 150.917 235.833 152.581L233.967 151.807C234.671 150.111 235.418 148.437 236.206 146.787ZM231.996 156.939L233.9 157.613C233.302 159.302 232.746 161.011 232.235 162.74L230.299 162.167C230.82 160.405 231.386 158.661 231.996 156.939ZM228.879 167.478L230.843 167.947C230.426 169.689 230.054 171.447 229.727 173.221L227.741 172.856C228.074 171.046 228.454 169.253 228.879 167.478ZM226.887 178.286L228.89 178.547C228.658 180.321 228.472 182.109 228.332 183.91L226.319 183.754C226.462 181.917 226.652 180.094 226.887 178.286ZM226.035 189.243C226.012 190.159 226 191.078 226 192C226 192.922 226.012 193.841 226.035 194.757L228.054 194.705C228.031 193.806 228.019 192.904 228.019 192C228.019 191.096 228.031 190.194 228.054 189.295L226.035 189.243ZM226.319 200.246L228.332 200.09C228.472 201.891 228.658 203.679 228.89 205.453L226.887 205.714C226.652 203.905 226.462 202.083 226.319 200.246ZM227.741 211.144L229.727 210.779C230.054 212.553 230.426 214.311 230.843 216.053L228.879 216.522C228.454 214.747 228.074 212.954 227.741 211.144ZM230.299 221.833L232.235 221.26C232.746 222.989 233.302 224.698 233.9 226.387L231.996 227.061C231.386 225.339 230.82 223.595 230.299 221.833ZM233.967 232.193L235.833 231.419C236.523 233.083 237.255 234.724 238.028 236.343L236.206 237.213C235.418 235.563 234.671 233.889 233.967 232.193ZM238.706 242.11C239.583 243.722 240.501 245.309 241.459 246.869L243.18 245.812C242.24 244.282 241.34 242.726 240.479 241.145L238.706 242.11ZM244.458 251.477L246.121 250.332C247.141 251.814 248.2 253.268 249.294 254.692L247.693 255.922C246.577 254.47 245.498 252.988 244.458 251.477ZM251.155 260.193L252.69 258.881C253.859 260.248 255.062 261.583 256.3 262.887L254.835 264.277C253.574 262.948 252.347 261.586 251.155 260.193ZM258.723 268.165L260.113 266.7C261.417 267.938 262.752 269.141 264.119 270.31L262.807 271.845C261.414 270.653 260.052 269.426 258.723 268.165ZM267.078 275.307L268.308 273.706C269.732 274.8 271.186 275.859 272.668 276.879L271.523 278.542C270.012 277.502 268.53 276.423 267.078 275.307ZM276.131 281.541L277.188 279.82C278.718 280.76 280.274 281.66 281.855 282.521L280.89 284.294C279.278 283.417 277.691 282.499 276.131 281.541ZM285.787 286.794L286.657 284.972C288.275 285.745 289.917 286.477 291.581 287.167L290.807 289.033C289.111 288.329 287.437 287.582 285.787 286.794ZM295.939 291.004L296.613 289.1C298.302 289.698 300.011 290.254 301.74 290.765L301.167 292.701C299.405 292.18 297.661 291.614 295.939 291.004ZM306.478 294.121L306.947 292.157C308.689 292.574 310.447 292.946 312.221 293.273L311.856 295.259C310.046 294.926 308.253 294.546 306.478 294.121ZM317.286 296.113L317.547 294.11C319.321 294.342 321.109 294.528 322.91 294.668L322.754 296.681C320.917 296.538 319.094 296.348 317.286 296.113ZM328.243 296.965L328.295 294.946C329.194 294.969 330.096 294.981 331 294.981C331.904 294.981 332.806 294.969 333.705 294.946L333.757 296.965C332.841 296.988 331.922 297 331 297C330.078 297 329.159 296.988 328.243 296.965ZM339.246 296.681L339.09 294.668C340.891 294.528 342.679 294.342 344.453 294.11L344.714 296.113C342.905 296.348 341.083 296.538 339.246 296.681ZM350.144 295.259L349.779 293.273C351.553 292.946 353.311 292.574 355.053 292.157L355.522 294.121C353.747 294.546 351.954 294.926 350.144 295.259ZM360.833 292.701L360.26 290.765C361.989 290.254 363.698 289.698 365.387 289.1L366.061 291.004C364.339 291.614 362.595 292.18 360.833 292.701ZM371.193 289.033L370.419 287.167C372.083 286.477 373.724 285.745 375.343 284.972L376.213 286.794C374.563 287.582 372.889 288.329 371.193 289.033ZM381.11 284.294L380.145 282.521C381.726 281.66 383.282 280.76 384.812 279.82L385.869 281.541C384.309 282.499 382.722 283.417 381.11 284.294ZM390.477 278.542L389.332 276.879C390.814 275.859 392.268 274.8 393.692 273.706L394.922 275.307C393.47 276.423 391.988 277.502 390.477 278.542ZM399.193 271.845L397.881 270.31C399.248 269.141 400.583 267.938 401.887 266.7L403.277 268.165C401.948 269.426 400.586 270.653 399.193 271.845ZM407.165 264.277L405.7 262.887C406.938 261.583 408.141 260.248 409.31 258.881L410.845 260.193C409.653 261.586 408.426 262.948 407.165 264.277ZM414.307 255.922L412.706 254.692C413.8 253.268 414.859 251.814 415.879 250.332L417.542 251.477C416.502 252.988 415.423 254.47 414.307 255.922ZM420.541 246.869L418.82 245.812C419.76 244.282 420.66 242.726 421.521 241.145L423.294 242.11C422.417 243.722 421.499 245.309 420.541 246.869ZM425.794 237.213L423.972 236.343C424.745 234.725 425.477 233.083 426.167 231.419L428.033 232.193C427.329 233.889 426.582 235.563 425.794 237.213ZM430.004 227.061L428.1 226.387C428.698 224.698 429.254 222.989 429.765 221.26L431.701 221.833C431.18 223.595 430.614 225.339 430.004 227.061ZM433.121 216.522L431.157 216.053C431.574 214.311 431.946 212.553 432.273 210.779L434.259 211.144C433.926 212.954 433.546 214.747 433.121 216.522ZM435.113 205.714L433.11 205.453C433.342 203.679 433.528 201.891 433.668 200.09L435.681 200.246C435.538 202.083 435.348 203.906 435.113 205.714Z" fill="#9380DF"/>
</svg>
