<svg width="2756" height="748" viewBox="0 0 2756 748" fill="none" xmlns="http://www.w3.org/2000/svg">
<path d="M2269.41 0H0.000285483L246.858 742.546L2031.04 513.437C2112.63 502.961 2153.42 497.723 2180.35 471.095C2207.27 444.468 2212.97 403.736 2224.36 322.273L2269.41 0Z" fill="white"/>
<path d="M1750.79 0L2755.67 0V748L1805.26 514.156C1682.38 483.921 1620.94 468.804 1598.11 420.922C1575.28 373.039 1602.21 315.787 1656.09 201.281L1750.79 0Z" fill="#8C77DE"/>
<path fill-rule="evenodd" clip-rule="evenodd" d="M1935.54 413.188C2017.08 413.188 2083.19 347.084 2083.19 265.54C2083.19 183.997 2017.08 117.893 1935.54 117.893C1854 117.893 1787.89 183.997 1787.89 265.54C1787.89 347.084 1854 413.188 1935.54 413.188ZM1935.54 455.692C2040.56 455.692 2125.69 370.558 2125.69 265.54C2125.69 160.522 2040.56 75.3879 1935.54 75.3879C1830.52 75.3879 1745.39 160.522 1745.39 265.54C1745.39 370.558 1830.52 455.692 1935.54 455.692Z" fill="#9380DF"/>
<path fill-rule="evenodd" clip-rule="evenodd" d="M2145.04 269.473L2142.06 269.418C2142.09 268.128 2142.1 266.836 2142.1 265.54C2142.1 264.245 2142.09 262.952 2142.06 261.662L2145.04 261.607C2145.07 262.916 2145.08 264.227 2145.08 265.54C2145.08 266.854 2145.07 268.165 2145.04 269.473ZM2144.76 253.785L2141.78 253.95C2141.64 251.367 2141.45 248.797 2141.21 246.241L2144.18 245.966C2144.42 248.559 2144.61 251.165 2144.76 253.785ZM2143.31 238.172L2140.35 238.558C2140.02 235.997 2139.64 233.451 2139.21 230.92L2142.15 230.424C2142.58 232.991 2142.97 235.574 2143.31 238.172ZM2140.7 222.728L2137.78 223.334C2137.26 220.805 2136.69 218.293 2136.07 215.798L2138.97 215.082C2139.59 217.613 2140.17 220.162 2140.7 222.728ZM2136.94 207.509L2134.07 208.333C2133.36 205.853 2132.6 203.393 2131.8 200.952L2134.63 200.02C2135.45 202.496 2136.22 204.993 2136.94 207.509ZM2132.05 192.627L2129.25 193.665C2128.35 191.246 2127.41 188.848 2126.43 186.473L2129.18 185.331C2130.18 187.74 2131.14 190.173 2132.05 192.627ZM2126.04 178.147L2123.33 179.393C2122.26 177.05 2121.14 174.73 2119.98 172.435L2122.64 171.089C2123.81 173.417 2124.95 175.77 2126.04 178.147ZM2118.97 164.165L2116.36 165.61C2115.11 163.355 2113.82 161.126 2112.49 158.924L2115.05 157.382C2116.39 159.616 2117.7 161.877 2118.97 164.165ZM2110.87 150.749L2108.37 152.385C2106.96 150.23 2105.51 148.103 2104.02 146.005L2106.45 144.277C2107.96 146.405 2109.43 148.563 2110.87 150.749ZM2101.79 137.976L2099.42 139.793C2097.85 137.75 2096.25 135.738 2094.6 133.756L2096.9 131.852C2098.57 133.862 2100.2 135.903 2101.79 137.976ZM2091.78 125.913L2089.56 127.902C2087.84 125.981 2086.09 124.094 2084.3 122.239L2086.45 120.169C2088.27 122.051 2090.04 123.966 2091.78 125.913ZM2080.91 114.628L2078.84 116.776C2076.99 114.989 2075.1 113.237 2073.18 111.519L2075.17 109.296C2077.12 111.038 2079.03 112.815 2080.91 114.628ZM2069.23 104.181L2067.32 106.477C2065.34 104.833 2063.33 103.226 2061.29 101.656L2063.11 99.2912C2065.18 100.884 2067.22 102.514 2069.23 104.181ZM2056.8 94.6327L2055.08 97.0639C2052.98 95.5727 2050.85 94.1197 2048.7 92.706L2050.33 90.212C2052.52 91.6462 2054.68 93.1201 2056.8 94.6327ZM2043.7 86.0354L2042.16 88.5888C2039.95 87.259 2037.73 85.9692 2035.47 84.7204L2036.92 82.111C2039.2 83.378 2041.46 84.6864 2043.7 86.0354ZM2029.99 78.4439L2028.65 81.1055C2026.35 79.9447 2024.03 78.8255 2021.69 77.7489L2022.93 75.0386C2025.31 76.1308 2027.66 77.2663 2029.99 78.4439ZM2015.75 71.9L2014.61 74.6553C2012.23 73.6704 2009.83 72.7286 2007.42 71.8308L2008.45 69.0344C2010.91 69.9453 2013.34 70.9008 2015.75 71.9ZM2001.06 66.4472L2000.13 69.2807C1997.69 68.478 1995.23 67.7196 1992.75 67.0064L1993.57 64.1398C1996.09 64.8634 1998.58 65.6329 2001.06 66.4472ZM1986 62.1152L1985.28 65.0108C1982.79 64.3941 1980.28 63.8228 1977.75 63.2977L1978.35 60.3771C1980.92 60.9099 1983.47 61.4896 1986 62.1152ZM1970.66 58.9297L1970.16 61.8709C1967.63 61.4439 1965.08 61.0629 1962.52 60.7288L1962.91 57.7711C1965.51 58.11 1968.09 58.4965 1970.66 58.9297ZM1955.11 56.9022L1954.84 59.8723C1952.28 59.6355 1949.71 59.4452 1947.13 59.3024L1947.3 56.3242C1949.92 56.469 1952.52 56.662 1955.11 56.9022ZM1939.47 56.0362L1939.42 59.0184C1938.13 58.9947 1936.84 58.9828 1935.54 58.9828C1934.24 58.9828 1932.95 58.9947 1931.66 59.0184L1931.61 56.0362C1932.92 56.0121 1934.23 56 1935.54 56C1936.85 56 1938.17 56.0121 1939.47 56.0362ZM1923.78 56.3242L1923.95 59.3024C1921.37 59.4452 1918.8 59.6355 1916.24 59.8723L1915.97 56.9023C1918.56 56.662 1921.17 56.4691 1923.78 56.3242ZM1908.17 57.7711L1908.56 60.7288C1906 61.0629 1903.45 61.4439 1900.92 61.8709L1900.42 58.9297C1902.99 58.4965 1905.57 58.11 1908.17 57.7711ZM1892.73 60.3772L1893.33 63.2977C1890.81 63.8228 1888.29 64.3942 1885.8 65.0109L1885.08 62.1152C1887.61 61.4896 1890.16 60.9099 1892.73 60.3772ZM1877.51 64.1398L1878.33 67.0064C1875.85 67.7196 1873.39 68.478 1870.95 69.2807L1870.02 66.4473C1872.5 65.6329 1874.99 64.8634 1877.51 64.1398ZM1862.63 69.0344L1863.66 71.8308C1861.25 72.7286 1858.85 73.6704 1856.47 74.6553L1855.33 71.9C1857.74 70.9008 1860.17 69.9453 1862.63 69.0344ZM1848.15 75.0386L1849.39 77.7489C1847.05 78.8255 1844.73 79.9447 1842.44 81.1055L1841.09 78.4439C1843.42 77.2663 1845.77 76.1308 1848.15 75.0386ZM1834.16 82.111L1835.61 84.7203C1833.36 85.9692 1831.13 87.259 1828.92 88.5888L1827.38 86.0354C1829.62 84.6864 1831.88 83.3779 1834.16 82.111ZM1820.75 90.212L1822.38 92.706C1820.23 94.1197 1818.1 95.5727 1816.01 97.0639L1814.28 94.6327C1816.41 93.12 1818.56 91.6461 1820.75 90.212ZM1807.98 99.2911L1809.79 101.656C1807.75 103.226 1805.74 104.833 1803.76 106.477L1801.85 104.181C1803.86 102.514 1805.9 100.884 1807.98 99.2911ZM1795.91 109.296L1797.9 111.519C1795.98 113.236 1794.09 114.989 1792.24 116.776L1790.17 114.628C1792.05 112.815 1793.97 111.038 1795.91 109.296ZM1784.63 120.169L1786.78 122.239C1784.99 124.094 1783.24 125.981 1781.52 127.902L1779.3 125.913C1781.04 123.966 1782.82 122.051 1784.63 120.169ZM1774.18 131.852L1776.48 133.756C1774.83 135.737 1773.23 137.75 1771.66 139.793L1769.29 137.975C1770.88 135.903 1772.51 133.862 1774.18 131.852ZM1764.63 144.277L1767.06 146.005C1765.57 148.103 1764.12 150.23 1762.71 152.385L1760.21 150.749C1761.65 148.563 1763.12 146.405 1764.63 144.277ZM1756.04 157.382L1758.59 158.924C1757.26 161.126 1755.97 163.355 1754.72 165.61L1752.11 164.165C1753.38 161.877 1754.69 159.616 1756.04 157.382ZM1748.44 171.089L1751.11 172.435C1749.94 174.73 1748.83 177.05 1747.75 179.393L1745.04 178.147C1746.13 175.77 1747.27 173.417 1748.44 171.089ZM1741.9 185.331L1744.66 186.473C1743.67 188.848 1742.73 191.246 1741.83 193.665L1739.03 192.627C1739.95 190.173 1740.9 187.74 1741.9 185.331ZM1736.45 200.02L1739.28 200.952C1738.48 203.393 1737.72 205.853 1737.01 208.333L1734.14 207.509C1734.86 204.993 1735.63 202.496 1736.45 200.02ZM1732.12 215.082L1735.01 215.798C1734.39 218.293 1733.82 220.805 1733.3 223.335L1730.38 222.728C1730.91 220.162 1731.49 217.613 1732.12 215.082ZM1728.93 230.424L1731.87 230.92C1731.44 233.451 1731.06 235.997 1730.73 238.558L1727.77 238.172C1728.11 235.574 1728.5 232.991 1728.93 230.424ZM1726.9 245.966L1729.87 246.241C1729.64 248.797 1729.45 251.367 1729.3 253.95L1726.32 253.785C1726.47 251.165 1726.66 248.559 1726.9 245.966ZM1726.04 261.608C1726.01 262.916 1726 264.227 1726 265.54C1726 266.854 1726.01 268.165 1726.04 269.473L1729.02 269.418C1728.99 268.128 1728.98 266.836 1728.98 265.54C1728.98 264.245 1728.99 262.952 1729.02 261.662L1726.04 261.608ZM1726.32 277.296L1729.3 277.131C1729.45 279.714 1729.64 282.284 1729.87 284.84L1726.9 285.115C1726.66 282.522 1726.47 279.915 1726.32 277.296ZM1727.77 292.908L1730.73 292.522C1731.06 295.084 1731.44 297.63 1731.87 300.161L1728.93 300.657C1728.5 298.09 1728.11 295.506 1727.77 292.908ZM1730.38 308.352L1733.3 307.746C1733.82 310.275 1734.39 312.788 1735.01 315.282L1732.12 315.998C1731.49 313.468 1730.91 310.919 1730.38 308.352ZM1734.14 323.572L1737.01 322.748C1737.72 325.227 1738.48 327.688 1739.28 330.128L1736.45 331.06C1735.63 328.584 1734.86 326.088 1734.14 323.572ZM1739.03 338.454L1741.83 337.416C1742.73 339.835 1743.67 342.232 1744.66 344.607L1741.9 345.75C1740.9 343.34 1739.95 340.908 1739.03 338.454ZM1745.04 352.933L1747.75 351.688C1748.83 354.031 1749.94 356.35 1751.11 358.645L1748.44 359.991C1747.27 357.663 1746.13 355.31 1745.04 352.933ZM1752.11 366.916L1754.72 365.471C1755.97 367.725 1757.26 369.954 1758.59 372.157L1756.04 373.698C1754.69 371.464 1753.38 369.203 1752.11 366.916ZM1760.21 380.332L1762.71 378.696C1764.12 380.851 1765.57 382.977 1767.06 385.075L1764.63 386.803C1763.12 384.675 1761.65 382.518 1760.21 380.332ZM1769.29 393.105C1770.88 395.177 1772.51 397.219 1774.18 399.229L1776.48 397.325C1774.83 395.343 1773.23 393.33 1771.66 391.288L1769.29 393.105ZM1779.3 405.167L1781.52 403.179C1783.24 405.099 1784.99 406.987 1786.78 408.842L1784.63 410.911C1782.82 409.03 1781.04 407.115 1779.3 405.167ZM1790.17 416.453C1792.05 418.265 1793.97 420.043 1795.91 421.785L1797.9 419.561C1795.98 417.844 1794.09 416.092 1792.24 414.305L1790.17 416.453ZM1801.85 426.9L1803.76 424.604C1805.74 426.247 1807.75 427.854 1809.79 429.424L1807.98 431.789C1805.9 430.197 1803.86 428.567 1801.85 426.9ZM1814.28 436.448L1816.01 434.017C1818.1 435.508 1820.23 436.961 1822.38 438.375L1820.75 440.869C1818.56 439.434 1816.41 437.961 1814.28 436.448ZM1827.38 445.045L1828.92 442.492C1831.13 443.822 1833.36 445.111 1835.61 446.36L1834.16 448.97C1831.88 447.703 1829.62 446.394 1827.38 445.045ZM1841.09 452.637L1842.44 449.975C1844.73 451.136 1847.05 452.255 1849.39 453.332L1848.15 456.042C1845.77 454.95 1843.42 453.814 1841.09 452.637ZM1855.33 459.181L1856.47 456.425C1858.85 457.41 1861.25 458.352 1863.66 459.25L1862.63 462.046C1860.17 461.135 1857.74 460.18 1855.33 459.181ZM1870.02 464.633L1870.95 461.8C1873.39 462.603 1875.85 463.361 1878.33 464.074L1877.51 466.941C1874.99 466.217 1872.5 465.448 1870.02 464.633ZM1885.08 468.965L1885.8 466.07C1888.29 466.686 1890.81 467.258 1893.33 467.783L1892.73 470.703C1890.16 470.171 1887.61 469.591 1885.08 468.965ZM1900.42 472.151L1900.92 469.21C1903.45 469.637 1906 470.018 1908.56 470.352L1908.17 473.31C1905.57 472.971 1902.99 472.584 1900.42 472.151ZM1915.97 474.178L1916.24 471.208C1918.8 471.445 1921.37 471.635 1923.95 471.778L1923.78 474.756C1921.17 474.612 1918.56 474.419 1915.97 474.178ZM1931.61 475.044L1931.66 472.062C1932.95 472.086 1934.24 472.098 1935.54 472.098C1936.84 472.098 1938.13 472.086 1939.42 472.062L1939.47 475.044C1938.17 475.069 1936.85 475.081 1935.54 475.081C1934.23 475.081 1932.92 475.069 1931.61 475.044ZM1947.3 474.756L1947.13 471.778C1949.71 471.635 1952.28 471.445 1954.84 471.208L1955.12 474.178C1952.52 474.419 1949.92 474.612 1947.3 474.756ZM1962.91 473.309C1965.51 472.971 1968.09 472.584 1970.66 472.151L1970.16 469.21C1967.63 469.637 1965.08 470.018 1962.52 470.352L1962.91 473.309ZM1978.35 470.703L1977.75 467.783C1980.28 467.258 1982.79 466.686 1985.28 466.07L1986 468.965C1983.47 469.591 1980.92 470.171 1978.35 470.703ZM1993.57 466.941L1992.75 464.074C1995.23 463.361 1997.69 462.603 2000.13 461.8L2001.06 464.633C1998.58 465.448 1996.09 466.217 1993.57 466.941ZM2008.45 462.046L2007.42 459.25C2009.83 458.352 2012.23 457.41 2014.61 456.425L2015.75 459.181C2013.34 460.18 2010.91 461.135 2008.45 462.046ZM2022.93 456.042L2021.69 453.332C2024.03 452.255 2026.35 451.136 2028.65 449.975L2029.99 452.637C2027.66 453.814 2025.31 454.95 2022.93 456.042ZM2036.92 448.97L2035.47 446.36C2037.73 445.111 2039.95 443.822 2042.16 442.492L2043.7 445.045C2041.46 446.394 2039.2 447.703 2036.92 448.97ZM2050.33 440.869L2048.7 438.375C2050.85 436.961 2052.98 435.508 2055.08 434.017L2056.8 436.448C2054.68 437.961 2052.52 439.434 2050.33 440.869ZM2063.11 431.789L2061.29 429.424C2063.33 427.855 2065.34 426.247 2067.32 424.604L2069.23 426.9C2067.22 428.567 2065.18 430.197 2063.11 431.789ZM2075.17 421.785L2073.18 419.561C2075.1 417.844 2076.99 416.092 2078.84 414.305L2080.91 416.453C2079.03 418.265 2077.11 420.043 2075.17 421.785ZM2086.45 410.911L2084.3 408.842C2086.09 406.987 2087.84 405.099 2089.56 403.179L2091.78 405.167C2090.04 407.115 2088.27 409.03 2086.45 410.911ZM2096.9 399.229L2094.6 397.325C2096.25 395.343 2097.85 393.33 2099.42 391.288L2101.79 393.105C2100.2 395.177 2098.57 397.219 2096.9 399.229ZM2106.45 386.803L2104.02 385.075C2105.51 382.977 2106.96 380.851 2108.37 378.696L2110.87 380.332C2109.43 382.518 2107.96 384.675 2106.45 386.803ZM2115.05 373.699L2112.49 372.157C2113.82 369.954 2115.11 367.725 2116.36 365.471L2118.97 366.916C2117.7 369.203 2116.39 371.464 2115.05 373.699ZM2122.64 359.991L2119.98 358.645C2121.14 356.35 2122.26 354.031 2123.33 351.688L2126.04 352.933C2124.95 355.31 2123.81 357.663 2122.64 359.991ZM2129.18 345.75L2126.43 344.607C2127.41 342.232 2128.35 339.835 2129.25 337.416L2132.05 338.454C2131.14 340.908 2130.18 343.34 2129.18 345.75ZM2134.63 331.06L2131.8 330.128C2132.6 327.688 2133.36 325.227 2134.07 322.747L2136.94 323.572C2136.22 326.088 2135.45 328.584 2134.63 331.06ZM2138.97 315.998L2136.07 315.282C2136.69 312.788 2137.26 310.275 2137.78 307.746L2140.7 308.352C2140.17 310.918 2139.59 313.467 2138.97 315.998ZM2142.15 300.657L2139.21 300.161C2139.64 297.63 2140.02 295.084 2140.35 292.522L2143.31 292.908C2142.97 295.506 2142.58 298.089 2142.15 300.657ZM2144.18 285.115L2141.21 284.84C2141.45 282.284 2141.64 279.714 2141.78 277.131L2144.76 277.296C2144.61 279.915 2144.42 282.522 2144.18 285.115Z" fill="#9380DF"/>
</svg>
