<svg width="1547" height="504" viewBox="0 0 1547 504" fill="none" xmlns="http://www.w3.org/2000/svg">
<path d="M1158 0L-2.45362e-05 0L171.291 435L934.257 361.242C1018.75 353.074 1060.99 348.99 1089.05 322.066C1117.11 295.141 1122.94 253.101 1134.58 169.021L1158 0Z" fill="white"/>
<path d="M1057.85 0L1546.19 0V504L1165.44 345.888C1077.98 309.572 1034.26 291.414 1015.71 253.109C997.164 214.805 1010.04 169.242 1035.78 78.1154L1057.85 0Z" fill="#8C77DE"/>
<path fill-rule="evenodd" clip-rule="evenodd" d="M1208 284.217C1268.32 284.217 1317.22 235.319 1317.22 175C1317.22 114.681 1268.32 65.783 1208 65.783C1147.68 65.783 1098.78 114.681 1098.78 175C1098.78 235.319 1147.68 284.217 1208 284.217ZM1208 315.658C1285.68 315.658 1348.66 252.684 1348.66 175C1348.66 97.3166 1285.68 34.3417 1208 34.3417C1130.32 34.3417 1067.34 97.3166 1067.34 175C1067.34 252.684 1130.32 315.658 1208 315.658Z" fill="#9380DF"/>
<path fill-rule="evenodd" clip-rule="evenodd" d="M1362.97 177.909L1360.77 177.868C1360.78 176.914 1360.79 175.958 1360.79 175C1360.79 174.042 1360.78 173.085 1360.77 172.131L1362.97 172.091C1362.99 173.058 1363 174.028 1363 175C1363 175.972 1362.99 176.942 1362.97 177.909ZM1362.76 166.304L1360.56 166.426C1360.45 164.516 1360.31 162.615 1360.14 160.724L1362.33 160.52C1362.51 162.438 1362.65 164.367 1362.76 166.304ZM1361.69 154.756L1359.5 155.041C1359.25 153.146 1358.97 151.263 1358.66 149.391L1360.83 149.024C1361.15 150.923 1361.44 152.834 1361.69 154.756ZM1359.76 143.331L1357.6 143.78C1357.21 141.909 1356.79 140.05 1356.33 138.205L1358.48 137.675C1358.94 139.548 1359.37 141.433 1359.76 143.331ZM1356.98 132.073L1354.86 132.683C1354.33 130.849 1353.77 129.029 1353.18 127.223L1355.27 126.534C1355.87 128.365 1356.44 130.212 1356.98 132.073ZM1353.36 121.065L1351.29 121.832C1350.63 120.043 1349.93 118.27 1349.2 116.513L1351.24 115.668C1351.98 117.45 1352.68 119.249 1353.36 121.065ZM1348.92 110.354L1346.91 111.275C1346.12 109.542 1345.29 107.827 1344.43 106.129L1346.4 105.133C1347.27 106.855 1348.11 108.596 1348.92 110.354ZM1343.69 100.011L1341.76 101.08C1340.83 99.4122 1339.88 97.7633 1338.89 96.1343L1340.78 94.9938C1341.78 96.6464 1342.75 98.3191 1343.69 100.011ZM1337.69 90.087L1335.85 91.2973C1334.8 89.7033 1333.73 88.13 1332.62 86.5782L1334.42 85.2999C1335.54 86.8741 1336.63 88.47 1337.69 90.087ZM1330.98 80.6385L1329.23 81.9829C1328.07 80.4718 1326.88 78.983 1325.66 77.5173L1327.36 76.1087C1328.59 77.5955 1329.8 79.1056 1330.98 80.6385ZM1323.58 71.7159L1321.93 73.1867C1320.66 71.7663 1319.36 70.3698 1318.04 68.998L1319.63 67.4671C1320.97 68.8586 1322.29 70.2752 1323.58 71.7159ZM1315.53 63.3679L1314 64.9568C1312.63 63.635 1311.23 62.3387 1309.81 61.0685L1311.28 59.4238C1312.72 60.7122 1314.14 62.0272 1315.53 63.3679ZM1306.89 55.6402L1305.48 57.3384C1304.02 56.1227 1302.53 54.9338 1301.02 53.7726L1302.36 52.0231C1303.89 53.201 1305.4 54.407 1306.89 55.6402ZM1297.7 48.5772L1296.42 50.3756C1294.87 49.2725 1293.3 48.1977 1291.7 47.152L1292.91 45.3071C1294.53 46.368 1296.13 47.4582 1297.7 48.5772ZM1288.01 42.2176L1286.87 44.1064C1285.24 43.1227 1283.59 42.1686 1281.92 41.2449L1282.99 39.3147C1284.68 40.2519 1286.35 41.2197 1288.01 42.2176ZM1277.87 36.6021L1276.87 38.5709C1275.17 37.7123 1273.46 36.8844 1271.72 36.088L1272.65 34.0831C1274.4 34.8911 1276.14 35.731 1277.87 36.6021ZM1267.33 31.7615L1266.49 33.7996C1264.73 33.0711 1262.96 32.3744 1261.17 31.7102L1261.94 29.6417C1263.75 30.3155 1265.55 31.0224 1267.33 31.7615ZM1256.47 27.728L1255.78 29.8239C1253.97 29.2302 1252.15 28.6692 1250.32 28.1416L1250.93 26.0211C1252.79 26.5564 1254.63 27.1256 1256.47 27.728ZM1245.32 24.5235L1244.79 26.6654C1242.95 26.2093 1241.09 25.7866 1239.22 25.3982L1239.67 23.2378C1241.57 23.6319 1243.45 24.0607 1245.32 24.5235ZM1233.98 22.1671L1233.61 24.3428C1231.74 24.0269 1229.85 23.7451 1227.96 23.498L1228.24 21.3101C1230.17 21.5608 1232.08 21.8467 1233.98 22.1671ZM1222.48 20.6674L1222.28 22.8644C1220.39 22.6892 1218.48 22.5485 1216.57 22.4428L1216.7 20.2398C1218.63 20.347 1220.56 20.4897 1222.48 20.6674ZM1210.91 20.0268L1210.87 22.2328C1209.91 22.2152 1208.96 22.2064 1208 22.2064C1207.04 22.2064 1206.09 22.2152 1205.13 22.2328L1205.09 20.0268C1206.06 20.0089 1207.03 20 1208 20C1208.97 20 1209.94 20.0089 1210.91 20.0268ZM1199.3 20.2398L1199.43 22.4428C1197.52 22.5485 1195.61 22.6892 1193.72 22.8644L1193.52 20.6674C1195.44 20.4897 1197.37 20.347 1199.3 20.2398ZM1187.76 21.3101L1188.04 23.498C1186.15 23.7451 1184.26 24.0269 1182.39 24.3428L1182.02 22.1671C1183.92 21.8467 1185.83 21.5608 1187.76 21.3101ZM1176.33 23.2379L1176.78 25.3982C1174.91 25.7866 1173.05 26.2093 1171.21 26.6655L1170.68 24.5235C1172.55 24.0607 1174.43 23.6319 1176.33 23.2379ZM1165.07 26.0211L1165.68 28.1416C1163.85 28.6692 1162.03 29.2302 1160.22 29.8239L1159.53 27.728C1161.37 27.1256 1163.21 26.5564 1165.07 26.0211ZM1154.06 29.6417L1154.83 31.7102C1153.04 32.3744 1151.27 33.0711 1149.51 33.7996L1148.67 31.7615C1150.45 31.0224 1152.25 30.3155 1154.06 29.6417ZM1143.35 34.0831L1144.28 36.088C1142.54 36.8844 1140.83 37.7123 1139.13 38.5709L1138.13 36.6021C1139.86 35.731 1141.6 34.8911 1143.35 34.0831ZM1133.01 39.3147L1134.08 41.2448C1132.41 42.1686 1130.76 43.1227 1129.13 44.1064L1127.99 42.2176C1129.65 41.2197 1131.32 40.2519 1133.01 39.3147ZM1123.09 45.3071L1124.3 47.152C1122.7 48.1977 1121.13 49.2725 1119.58 50.3755L1118.3 48.5772C1119.87 47.4582 1121.47 46.368 1123.09 45.3071ZM1113.64 52.0231L1114.98 53.7726C1113.47 54.9338 1111.98 56.1227 1110.52 57.3384L1109.11 55.6401C1110.6 54.4069 1112.11 53.201 1113.64 52.0231ZM1104.72 59.4238L1106.19 61.0685C1104.77 62.3387 1103.37 63.635 1102 64.9568L1100.47 63.3679C1101.86 62.0272 1103.28 60.7122 1104.72 59.4238ZM1096.37 67.4671L1097.96 68.998C1096.64 70.3698 1095.34 71.7663 1094.07 73.1867L1092.42 71.7159C1093.71 70.2751 1095.03 68.8586 1096.37 67.4671ZM1088.64 76.1086L1090.34 77.5172C1089.12 78.983 1087.93 80.4718 1086.77 81.9829L1085.02 80.6384C1086.2 79.1056 1087.41 77.5954 1088.64 76.1086ZM1081.58 85.2999L1083.38 86.5782C1082.27 88.13 1081.2 89.7033 1080.15 91.2973L1078.31 90.087C1079.37 88.47 1080.46 86.874 1081.58 85.2999ZM1075.22 94.9938L1077.11 96.1343C1076.12 97.7633 1075.17 99.4122 1074.24 101.08L1072.31 100.011C1073.25 98.319 1074.22 96.6463 1075.22 94.9938ZM1069.6 105.133L1071.57 106.129C1070.71 107.827 1069.88 109.542 1069.09 111.275L1067.08 110.354C1067.89 108.596 1068.73 106.855 1069.6 105.133ZM1064.76 115.668L1066.8 116.513C1066.07 118.27 1065.37 120.043 1064.71 121.832L1062.64 121.065C1063.32 119.249 1064.02 117.45 1064.76 115.668ZM1060.73 126.534L1062.82 127.223C1062.23 129.029 1061.67 130.849 1061.14 132.683L1059.02 132.073C1059.56 130.212 1060.13 128.365 1060.73 126.534ZM1057.52 137.676L1059.67 138.205C1059.21 140.05 1058.79 141.909 1058.4 143.78L1056.24 143.331C1056.63 141.433 1057.06 139.548 1057.52 137.676ZM1055.17 149.024L1057.34 149.391C1057.03 151.263 1056.75 153.146 1056.5 155.041L1054.31 154.756C1054.56 152.834 1054.85 150.923 1055.17 149.024ZM1053.67 160.52L1055.86 160.724C1055.69 162.615 1055.55 164.516 1055.44 166.426L1053.24 166.304C1053.35 164.367 1053.49 162.438 1053.67 160.52ZM1053.03 172.091C1053.01 173.058 1053 174.028 1053 175C1053 175.972 1053.01 176.942 1053.03 177.909L1055.23 177.869C1055.22 176.915 1055.21 175.958 1055.21 175C1055.21 174.042 1055.22 173.086 1055.23 172.132L1053.03 172.091ZM1053.24 183.696L1055.44 183.574C1055.55 185.484 1055.69 187.385 1055.86 189.276L1053.67 189.48C1053.49 187.562 1053.35 185.633 1053.24 183.696ZM1054.31 195.244L1056.5 194.959C1056.75 196.854 1057.03 198.737 1057.34 200.609L1055.17 200.976C1054.85 199.077 1054.56 197.166 1054.31 195.244ZM1056.24 206.669L1058.4 206.22C1058.79 208.091 1059.21 209.95 1059.67 211.795L1057.52 212.325C1057.06 210.452 1056.63 208.567 1056.24 206.669ZM1059.02 217.927L1061.14 217.317C1061.67 219.151 1062.23 220.971 1062.82 222.777L1060.73 223.466C1060.13 221.635 1059.56 219.788 1059.02 217.927ZM1062.64 228.935L1064.71 228.168C1065.37 229.957 1066.07 231.73 1066.8 233.487L1064.76 234.332C1064.02 232.55 1063.32 230.751 1062.64 228.935ZM1067.08 239.646L1069.09 238.725C1069.88 240.458 1070.71 242.173 1071.57 243.871L1069.6 244.867C1068.73 243.145 1067.89 241.404 1067.08 239.646ZM1072.31 249.989L1074.24 248.92C1075.17 250.588 1076.12 252.237 1077.11 253.866L1075.22 255.006C1074.22 253.354 1073.25 251.681 1072.31 249.989ZM1078.31 259.913L1080.15 258.703C1081.2 260.297 1082.27 261.87 1083.38 263.422L1081.58 264.7C1080.46 263.126 1079.37 261.53 1078.31 259.913ZM1085.02 269.362C1086.2 270.894 1087.41 272.405 1088.64 273.891L1090.34 272.483C1089.12 271.017 1087.93 269.528 1086.77 268.017L1085.02 269.362ZM1092.42 278.284L1094.07 276.813C1095.34 278.234 1096.64 279.63 1097.96 281.002L1096.37 282.533C1095.03 281.141 1093.71 279.725 1092.42 278.284ZM1100.47 286.632C1101.86 287.973 1103.28 289.288 1104.72 290.576L1106.19 288.931C1104.77 287.661 1103.37 286.365 1102 285.043L1100.47 286.632ZM1109.11 294.36L1110.52 292.662C1111.98 293.877 1113.47 295.066 1114.98 296.227L1113.64 297.977C1112.11 296.799 1110.6 295.593 1109.11 294.36ZM1118.3 301.423L1119.58 299.624C1121.13 300.727 1122.7 301.802 1124.3 302.848L1123.09 304.693C1121.47 303.632 1119.87 302.542 1118.3 301.423ZM1127.99 307.782L1129.13 305.894C1130.76 306.877 1132.41 307.831 1134.08 308.755L1133.01 310.685C1131.32 309.748 1129.65 308.78 1127.99 307.782ZM1138.13 313.398L1139.13 311.429C1140.83 312.288 1142.54 313.116 1144.28 313.912L1143.35 315.917C1141.6 315.109 1139.86 314.269 1138.13 313.398ZM1148.67 318.239L1149.51 316.2C1151.27 316.929 1153.04 317.626 1154.83 318.29L1154.06 320.358C1152.25 319.684 1150.45 318.978 1148.67 318.239ZM1159.53 322.272L1160.22 320.176C1162.03 320.77 1163.85 321.331 1165.68 321.858L1165.07 323.979C1163.21 323.444 1161.37 322.874 1159.53 322.272ZM1170.68 325.476L1171.21 323.335C1173.05 323.791 1174.91 324.213 1176.78 324.602L1176.33 326.762C1174.43 326.368 1172.55 325.939 1170.68 325.476ZM1182.02 327.833L1182.39 325.657C1184.26 325.973 1186.15 326.255 1188.04 326.502L1187.76 328.69C1185.83 328.439 1183.92 328.153 1182.02 327.833ZM1193.52 329.333L1193.72 327.136C1195.61 327.311 1197.52 327.452 1199.43 327.557L1199.3 329.76C1197.37 329.653 1195.44 329.51 1193.52 329.333ZM1205.09 329.973L1205.13 327.767C1206.09 327.785 1207.04 327.794 1208 327.794C1208.96 327.794 1209.91 327.785 1210.87 327.767L1210.91 329.973C1209.94 329.991 1208.97 330 1208 330C1207.03 330 1206.06 329.991 1205.09 329.973ZM1216.7 329.76L1216.57 327.557C1218.48 327.452 1220.39 327.311 1222.28 327.136L1222.48 329.333C1220.56 329.51 1218.63 329.653 1216.7 329.76ZM1228.24 328.69C1230.17 328.439 1232.08 328.153 1233.98 327.833L1233.61 325.657C1231.74 325.973 1229.85 326.255 1227.96 326.502L1228.24 328.69ZM1239.67 326.762L1239.22 324.602C1241.09 324.213 1242.95 323.791 1244.79 323.335L1245.32 325.476C1243.45 325.939 1241.57 326.368 1239.67 326.762ZM1250.93 323.979L1250.32 321.858C1252.15 321.331 1253.97 320.77 1255.78 320.176L1256.47 322.272C1254.63 322.874 1252.79 323.444 1250.93 323.979ZM1261.94 320.358L1261.17 318.29C1262.96 317.626 1264.73 316.929 1266.49 316.2L1267.33 318.239C1265.55 318.978 1263.75 319.684 1261.94 320.358ZM1272.65 315.917L1271.72 313.912C1273.46 313.116 1275.17 312.288 1276.87 311.429L1277.87 313.398C1276.14 314.269 1274.4 315.109 1272.65 315.917ZM1282.99 310.685L1281.92 308.755C1283.59 307.831 1285.24 306.877 1286.87 305.894L1288.01 307.782C1286.35 308.78 1284.68 309.748 1282.99 310.685ZM1292.91 304.693L1291.7 302.848C1293.3 301.802 1294.87 300.728 1296.42 299.624L1297.7 301.423C1296.13 302.542 1294.53 303.632 1292.91 304.693ZM1302.36 297.977L1301.02 296.227C1302.53 295.066 1304.02 293.877 1305.48 292.662L1306.89 294.36C1305.4 295.593 1303.89 296.799 1302.36 297.977ZM1311.28 290.576L1309.81 288.932C1311.23 287.661 1312.63 286.365 1314 285.043L1315.53 286.632C1314.14 287.973 1312.72 289.288 1311.28 290.576ZM1319.63 282.533L1318.04 281.002C1319.36 279.63 1320.66 278.234 1321.93 276.813L1323.58 278.284C1322.29 279.725 1320.97 281.141 1319.63 282.533ZM1327.36 273.891L1325.66 272.483C1326.88 271.017 1328.07 269.528 1329.23 268.017L1330.98 269.362C1329.8 270.894 1328.59 272.405 1327.36 273.891ZM1334.42 264.7L1332.62 263.422C1333.73 261.87 1334.8 260.297 1335.85 258.703L1337.69 259.913C1336.63 261.53 1335.54 263.126 1334.42 264.7ZM1340.78 255.006L1338.89 253.866C1339.88 252.237 1340.83 250.588 1341.76 248.92L1343.69 249.989C1342.75 251.681 1341.78 253.354 1340.78 255.006ZM1346.4 244.867L1344.43 243.871C1345.29 242.173 1346.12 240.458 1346.91 238.725L1348.92 239.646C1348.11 241.404 1347.27 243.145 1346.4 244.867ZM1351.24 234.332L1349.2 233.487C1349.93 231.73 1350.63 229.957 1351.29 228.168L1353.36 228.935C1352.68 230.751 1351.98 232.55 1351.24 234.332ZM1355.27 223.466L1353.18 222.777C1353.77 220.971 1354.33 219.151 1354.86 217.317L1356.98 217.927C1356.44 219.788 1355.87 221.635 1355.27 223.466ZM1358.48 212.324L1356.33 211.795C1356.79 209.95 1357.21 208.091 1357.6 206.22L1359.76 206.669C1359.37 208.567 1358.94 210.452 1358.48 212.324ZM1360.83 200.976L1358.66 200.609C1358.97 198.737 1359.25 196.854 1359.5 194.959L1361.69 195.244C1361.44 197.166 1361.15 199.077 1360.83 200.976ZM1362.33 189.48L1360.14 189.276C1360.31 187.385 1360.45 185.484 1360.56 183.574L1362.76 183.696C1362.65 185.633 1362.51 187.562 1362.33 189.48Z" fill="#9380DF"/>
</svg>
